<svg width="37" height="36" viewBox="0 0 37 36" fill="none" xmlns="http://www.w3.org/2000/svg">
<path d="M9.83313 6.90157C10.5 6.456 11.2002 6.06954 11.9257 5.74464C13.9835 4.82308 15.0124 4.3623 16.3812 5.2491C17.75 6.13591 17.75 7.59061 17.75 10.5V12.75C17.75 15.5784 17.75 16.9926 18.6287 17.8713C19.5074 18.75 20.9216 18.75 23.75 18.75H26C28.9094 18.75 30.3641 18.75 31.2509 20.1188C32.1377 21.4876 31.6769 22.5165 30.7554 24.5744C30.4305 25.2999 30.044 26 29.5984 26.6669C28.0326 29.0103 25.8071 30.8367 23.2032 31.9153C20.5994 32.9938 17.7342 33.276 14.97 32.7262C12.2057 32.1764 9.66663 30.8192 7.67374 28.8263C5.68084 26.8334 4.32366 24.2943 3.77382 21.53C3.22398 18.7658 3.50617 15.9006 4.58472 13.2968C5.66327 10.6929 7.48973 8.46738 9.83313 6.90157Z" stroke="#2C364E" stroke-width="2.25"/>
<path d="M32.6691 10.6035C31.4513 7.51247 28.9876 5.04868 25.8965 3.83097C23.5842 2.92004 21.5 5.01474 21.5 7.50002V13.5C21.5 14.3285 22.1716 15 23 15H29C31.4853 15 33.58 12.9158 32.6691 10.6035Z" stroke="#2C364E" stroke-width="2.25"/>
</svg>
