<svg width="13" height="22" viewBox="0 0 13 22" fill="none" xmlns="http://www.w3.org/2000/svg">
<rect x="0.945312" y="0.0568848" width="11.4299" height="21.9454" rx="5.71495" fill="#F4F4F5"/>
<path d="M3.0034 15.8301C3.0034 15.1656 3.17104 14.5499 3.50632 13.983C3.8294 13.4344 4.26526 12.9985 4.8139 12.6754C5.38082 12.3402 5.99651 12.1725 6.66097 12.1725C7.32543 12.1725 7.94112 12.3402 8.50804 12.6754C9.05667 12.9985 9.49253 13.4344 9.81562 13.983C10.1509 14.5499 10.3185 15.1656 10.3185 15.8301H9.40414C9.40414 15.3363 9.27918 14.8761 9.02924 14.4493C8.78541 14.0348 8.45622 13.7056 8.0417 13.4618C7.61498 13.2119 7.15474 13.0869 6.66097 13.0869C6.1672 13.0869 5.70695 13.2119 5.28024 13.4618C4.86571 13.7056 4.53653 14.0348 4.29269 14.4493C4.04276 14.8761 3.91779 15.3363 3.91779 15.8301H3.0034ZM6.66097 11.7153C6.1611 11.7153 5.70086 11.5903 5.28024 11.3404C4.86571 11.0966 4.53653 10.7674 4.29269 10.3529C4.04276 9.93225 3.91779 9.47201 3.91779 8.97214C3.91779 8.47227 4.04276 8.01203 4.29269 7.59141C4.53653 7.17689 4.86571 6.84771 5.28024 6.60387C5.70086 6.35393 6.1611 6.22897 6.66097 6.22897C7.16084 6.22897 7.62108 6.35393 8.0417 6.60387C8.45622 6.84771 8.78541 7.17689 9.02924 7.59141C9.27918 8.01203 9.40414 8.47227 9.40414 8.97214C9.40414 9.47201 9.27918 9.93225 9.02924 10.3529C8.78541 10.7674 8.45622 11.0966 8.0417 11.3404C7.62108 11.5903 7.16084 11.7153 6.66097 11.7153ZM6.66097 10.8009C6.99015 10.8009 7.29495 10.7186 7.57536 10.554C7.85577 10.3894 8.07828 10.1669 8.24287 9.88653C8.40746 9.60612 8.48975 9.30132 8.48975 8.97214C8.48975 8.64296 8.40746 8.33816 8.24287 8.05775C8.07828 7.77734 7.85577 7.55484 7.57536 7.39024C7.29495 7.22565 6.99015 7.14336 6.66097 7.14336C6.33179 7.14336 6.02699 7.22565 5.74658 7.39024C5.46616 7.55484 5.24366 7.77734 5.07907 8.05775C4.91448 8.33816 4.83219 8.64296 4.83219 8.97214C4.83219 9.30132 4.91448 9.60612 5.07907 9.88653C5.24366 10.1669 5.46616 10.3894 5.74658 10.554C6.02699 10.7186 6.33179 10.8009 6.66097 10.8009Z" fill="#3F3F46"/>
</svg>
