<svg width="24" height="24" viewBox="0 0 24 24" fill="none" xmlns="http://www.w3.org/2000/svg">
<path d="M10.7371 1.10353C10.9363 -0.367844 13.0642 -0.367844 13.2634 1.10353C13.4215 2.27009 14.9409 2.61709 15.5896 1.63478C16.4075 0.395618 18.3247 1.31845 17.866 2.73049C17.5021 3.85011 18.7205 4.82217 19.7312 4.21877C21.0058 3.45717 22.3325 5.1202 21.3064 6.19338C20.4927 7.04438 21.1699 8.44935 22.3425 8.34377C23.8211 8.21095 24.2941 10.285 22.904 10.8067C21.802 11.2204 21.802 12.7796 22.904 13.1934C24.2941 13.715 23.8211 15.7891 22.3425 15.6563C21.1698 15.5507 20.4927 16.9557 21.3064 17.8067C22.3325 18.8798 21.0058 20.5429 19.7312 19.7813C18.7205 19.1778 17.5021 20.1499 17.866 21.2695C18.3246 22.6816 16.4075 23.6044 15.5896 22.3653C14.9409 21.3829 13.4215 21.7299 13.2634 22.8965C13.0642 24.3679 10.9363 24.3679 10.7371 22.8965C10.579 21.7298 9.05854 21.3827 8.4099 22.3653C7.59197 23.6045 5.67564 22.6817 6.13451 21.2695C6.49835 20.1498 5.279 19.1775 4.2683 19.7813C2.99376 20.5428 1.66726 18.8798 2.69311 17.8067C3.50673 16.9557 2.83043 15.551 1.65795 15.6563C0.179148 15.7894 -0.294611 13.7151 1.09545 13.1934C2.1978 12.7797 2.1978 11.2203 1.09545 10.8067C-0.294622 10.2849 0.179145 8.21062 1.65795 8.34377C2.83043 8.44907 3.50673 7.04431 2.69311 6.19338C1.66724 5.12019 2.99375 3.4572 4.2683 4.21877C5.27899 4.82247 6.49833 3.85018 6.13451 2.73049C5.67564 1.31836 7.59197 0.395575 8.4099 1.63478C9.05854 2.6173 10.579 2.27022 10.7371 1.10353ZM10.3357 14.2256L8.13158 12.0215L6.94408 13.208L10.3357 16.5996L17.1189 9.81642L15.9324 8.6299L10.3357 14.2256Z" fill="#3B82F6"/>
</svg>
