<svg width="32" height="32" viewBox="0 0 32 32" fill="none" xmlns="http://www.w3.org/2000/svg">
<path d="M2.66406 10.6657C2.66406 12.455 13.4591 17.3333 15.9809 17.3333C18.5029 17.3333 29.2979 12.455 29.2979 10.6657C29.2979 8.87639 18.5029 3.99805 15.9809 3.99805C13.4591 3.99805 2.66406 8.87639 2.66406 10.6657Z" stroke="#3F3F46" stroke-width="2" stroke-linecap="round" stroke-linejoin="round"/>
<path d="M7.98959 14.6667L9.65797 22.4003C9.77225 22.93 10.036 23.425 10.4759 23.7406C13.4383 25.8664 18.5211 25.8664 21.4835 23.7406C21.9235 23.425 22.1872 22.93 22.3015 22.4003L23.9699 14.6667" stroke="#3F3F46" stroke-width="2" stroke-linecap="round" stroke-linejoin="round"/>
<path d="M27.3032 12.666V22.0008M27.3032 22.0008C26.2485 23.9295 25.7821 24.9628 25.3084 26.6681C25.2056 27.2749 25.2872 27.5807 25.7048 27.8521C25.8745 27.9624 26.0784 28.0016 26.2805 28.0016H28.3053C28.5205 28.0016 28.7377 27.9567 28.9151 27.8343C29.3032 27.5663 29.4031 27.2721 29.2979 26.6681C28.8827 25.0847 28.3537 24.0021 27.3032 22.0008Z" stroke="#3F3F46" stroke-width="2" stroke-linecap="round" stroke-linejoin="round"/>
</svg>
