<svg width="17" height="16" viewBox="0 0 17 16" fill="none" xmlns="http://www.w3.org/2000/svg">
<path d="M1.90479 8.00002C1.90479 5.48586 1.90479 4.22878 2.68583 3.44774C3.46688 2.66669 4.72396 2.66669 7.23812 2.66669H9.90479C12.4189 2.66669 13.676 2.66669 14.4571 3.44774C15.2381 4.22878 15.2381 5.48586 15.2381 8.00002V9.33335C15.2381 11.8475 15.2381 13.1046 14.4571 13.8856C13.676 14.6667 12.4189 14.6667 9.90479 14.6667H7.23812C4.72396 14.6667 3.46688 14.6667 2.68583 13.8856C1.90479 13.1046 1.90479 11.8475 1.90479 9.33335V8.00002Z" stroke="#3F3F46"/>
<path d="M5.23779 2.66669V1.66669" stroke="#3F3F46" stroke-linecap="round"/>
<path d="M11.9048 2.66669V1.66669" stroke="#3F3F46" stroke-linecap="round"/>
<path d="M2.23779 6H14.9045" stroke="#3F3F46" stroke-linecap="round"/>
</svg>
