<svg width="25" height="24" viewBox="0 0 25 24" fill="none" xmlns="http://www.w3.org/2000/svg">
<path d="M16.5 2V6M8.5 2V6" stroke="#3F3F46" stroke-width="1.5" stroke-linecap="round" stroke-linejoin="round"/>
<path d="M13.5 4H11.5C7.72876 4 5.84315 4 4.67157 5.17157C3.5 6.34315 3.5 8.22876 3.5 12V14C3.5 17.7712 3.5 19.6569 4.67157 20.8284C5.84315 22 7.72876 22 11.5 22H13.5C17.2712 22 19.1569 22 20.3284 20.8284C21.5 19.6569 21.5 17.7712 21.5 14V12C21.5 8.22876 21.5 6.34315 20.3284 5.17157C19.1569 4 17.2712 4 13.5 4Z" stroke="#3F3F46" stroke-width="1.5" stroke-linecap="round" stroke-linejoin="round"/>
<path d="M3.5 10H21.5" stroke="#3F3F46" stroke-width="1.5" stroke-linecap="round" stroke-linejoin="round"/>
<path d="M9.5 16.5C9.5 16.5 11 17 11.5 18.5C11.5 18.5 13.6765 14.5 16.5 13.5" stroke="#3F3F46" stroke-width="1.5" stroke-linecap="round" stroke-linejoin="round"/>
</svg>
