<svg width="25" height="25" viewBox="0 0 25 25" fill="none" xmlns="http://www.w3.org/2000/svg">
<path d="M2.28516 12.8569C2.28516 9.0857 2.28516 7.20008 3.45673 6.02851C4.6283 4.85693 6.51392 4.85693 10.2852 4.85693H14.2852C18.0564 4.85693 19.942 4.85693 21.1136 6.02851C22.2852 7.20008 22.2852 9.0857 22.2852 12.8569C22.2852 16.6282 22.2852 18.5138 21.1136 19.6854C19.942 20.8569 18.0564 20.8569 14.2852 20.8569H10.2852C6.51392 20.8569 4.6283 20.8569 3.45673 19.6854C2.28516 18.5138 2.28516 16.6282 2.28516 12.8569Z" stroke="#3F3F46" stroke-width="1.5"/>
<path d="M10.2852 16.8569H6.28516" stroke="#3F3F46" stroke-width="1.5" stroke-linecap="round"/>
<path d="M14.2852 16.8569H12.7852" stroke="#3F3F46" stroke-width="1.5" stroke-linecap="round"/>
<path d="M2.28516 10.8569L22.2852 10.8569" stroke="#3F3F46" stroke-width="1.5" stroke-linecap="round"/>
</svg>
