<svg width="32" height="32" viewBox="0 0 32 32" fill="none" xmlns="http://www.w3.org/2000/svg">
<path d="M26.6667 12C25.6064 6.68609 20.6838 2.66669 14.7724 2.66669C8.08734 2.66669 2.66669 7.80697 2.66669 14.1467C2.66669 17.1928 3.91761 19.9606 5.95809 22.0144C6.40734 22.4667 6.70729 23.0846 6.58623 23.7204C6.38645 24.7602 5.9337 25.73 5.27075 26.5383C7.01499 26.8599 8.82865 26.5703 10.384 25.7503C10.9339 25.4606 11.2088 25.3156 11.4028 25.2862C11.5386 25.2656 11.7155 25.2848 12 25.3336" stroke="#3F3F46" stroke-width="2" stroke-linecap="round" stroke-linejoin="round"/>
<path d="M14.6667 21.6823C14.6667 25.5566 17.9504 28.6979 22 28.6979C22.4762 28.6984 22.951 28.6544 23.4187 28.5667C23.7554 28.5034 23.9238 28.4718 24.0412 28.4898C24.1587 28.5076 24.3254 28.5963 24.6584 28.7734C25.6006 29.2744 26.6992 29.4514 27.7559 29.2548C27.3543 28.761 27.08 28.1683 26.959 27.5328C26.8856 27.1443 27.0674 26.7667 27.3395 26.4903C28.5756 25.2351 29.3334 23.5438 29.3334 21.6823C29.3334 17.808 26.0496 14.6667 22 14.6667C17.9504 14.6667 14.6667 17.808 14.6667 21.6823Z" stroke="#3F3F46" stroke-width="2" stroke-linejoin="round"/>
</svg>
