<svg width="24" height="25" viewBox="0 0 24 25" fill="none" xmlns="http://www.w3.org/2000/svg">
<path d="M20.9427 17.3354C20.2864 13.3866 18.2432 10.4461 16.467 8.719C15.9501 8.21642 15.6917 7.96513 15.1208 7.73257C14.5499 7.5 14.0592 7.5 13.0778 7.5H10.9222C9.94081 7.5 9.4501 7.5 8.87922 7.73257C8.30834 7.96513 8.04991 8.21642 7.53304 8.719C5.75682 10.4461 3.71361 13.3866 3.05727 17.3354C2.56893 20.2734 5.27927 22.5 8.30832 22.5H15.6917C18.7207 22.5 21.4311 20.2734 20.9427 17.3354Z" stroke="#3F3F46" stroke-width="1.5" stroke-linecap="round" stroke-linejoin="round"/>
<path d="M7.25662 4.94287C7.05031 4.64258 6.75128 4.23499 7.36899 4.14205C8.00392 4.04651 8.66321 4.48114 9.30855 4.47221C9.89237 4.46413 10.1898 4.20519 10.5089 3.83548C10.8449 3.44617 11.3652 2.5 12 2.5C12.6348 2.5 13.1551 3.44617 13.4911 3.83548C13.8102 4.20519 14.1076 4.46413 14.6914 4.47221C15.3368 4.48114 15.9961 4.04651 16.631 4.14205C17.2487 4.23499 16.9497 4.64258 16.7434 4.94287L15.8105 6.30064C15.4115 6.88146 15.212 7.17187 14.7944 7.33594C14.3769 7.5 13.8373 7.5 12.7582 7.5H11.2418C10.1627 7.5 9.6231 7.5 9.20556 7.33594C8.78802 7.17187 8.5885 6.88146 8.18945 6.30064L7.25662 4.94287Z" stroke="#3F3F46" stroke-width="1.5" stroke-linejoin="round"/>
<path d="M13.6267 13.4186C13.4105 12.6205 12.3101 11.9003 10.9892 12.4391C9.66829 12.9778 9.45847 14.7113 11.4565 14.8955C12.3595 14.9787 12.9483 14.7989 13.4873 15.3076C14.0264 15.8162 14.1265 17.2308 12.7485 17.612C11.3705 17.9932 10.006 17.3976 9.85742 16.5517M11.8417 11.4927V12.2531M11.8417 17.7293V18.4927" stroke="#3F3F46" stroke-width="1.5" stroke-linecap="round" stroke-linejoin="round"/>
</svg>
