<svg width="15" height="20" viewBox="0 0 15 20" fill="none" xmlns="http://www.w3.org/2000/svg">
<path d="M7.62079 15.2471C6.89488 15.2471 6.20099 15.1084 5.53913 14.831C4.90573 14.5608 4.34172 14.1785 3.84711 13.6842C3.35249 13.1899 2.96996 12.6263 2.69952 11.9934C2.42197 11.332 2.28319 10.6385 2.28319 9.91312C2.28319 9.1877 2.42197 8.49429 2.69952 7.83288C2.96996 7.19992 3.35249 6.6363 3.84711 6.14202C4.34172 5.64774 4.90573 5.26547 5.53913 4.99522C6.20099 4.71785 6.89488 4.57917 7.62079 4.57917C8.34671 4.57917 9.0406 4.71785 9.70246 4.99522C10.3359 5.26547 10.8999 5.64774 11.3945 6.14202C11.8891 6.6363 12.2716 7.19992 12.5421 7.83288C12.8196 8.49429 12.9584 9.1877 12.9584 9.91312C12.9584 10.6385 12.8196 11.332 12.5421 11.9934C12.2716 12.6263 11.8891 13.1899 11.3945 13.6842C10.8999 14.1785 10.3359 14.5608 9.70246 14.831C9.0406 15.1084 8.34671 15.2471 7.62079 15.2471ZM7.62079 14.1803C8.39653 14.1803 9.11532 13.9847 9.77719 13.5935C10.4177 13.2166 10.9266 12.7081 11.3037 12.068C11.6952 11.4066 11.8909 10.6883 11.8909 9.91312C11.8909 9.13792 11.6952 8.41961 11.3037 7.7582C10.9266 7.11813 10.4177 6.60963 9.77719 6.2327C9.11532 5.84154 8.39653 5.64596 7.62079 5.64596C6.84506 5.64596 6.12626 5.84154 5.4644 6.2327C4.82389 6.60963 4.31504 7.11813 3.93785 7.7582C3.54642 8.41961 3.35071 9.13792 3.35071 9.91312C3.35071 10.6883 3.54642 11.4066 3.93785 12.068C4.31504 12.7081 4.82389 13.2166 5.4644 13.5935C6.12626 13.9847 6.84506 14.1803 7.62079 14.1803ZM8.15456 9.91312H10.2896V10.9799H7.08703V7.24615H8.15456V9.91312Z" fill="#3F3F46"/>
</svg>
