<svg width="21" height="30" viewBox="0 0 21 30" fill="none" xmlns="http://www.w3.org/2000/svg">
<rect x="0.945374" y="0.508545" width="19.2429" height="29.2605" rx="9.62145" fill="#FEF3C7"/>
<path d="M10.5684 21.2344C9.73931 21.2344 8.94683 21.0759 8.19094 20.7589C7.46755 20.45 6.82341 20.0132 6.25852 19.4483C5.69363 18.8834 5.25676 18.2392 4.9479 17.5158C4.63091 16.76 4.47241 15.9675 4.47241 15.1384C4.47241 14.3094 4.63091 13.5169 4.9479 12.761C5.25676 12.0376 5.69363 11.3935 6.25852 10.8286C6.82341 10.2637 7.46755 9.82683 8.19094 9.51797C8.94683 9.20098 9.73931 9.04249 10.5684 9.04249C11.3974 9.04249 12.1899 9.20098 12.9458 9.51797C13.6692 9.82683 14.3133 10.2637 14.8782 10.8286C15.4431 11.3935 15.88 12.0376 16.1888 12.761C16.5058 13.5169 16.6643 14.3094 16.6643 15.1384C16.6643 15.9675 16.5058 16.76 16.1888 17.5158C15.88 18.2392 15.4431 18.8834 14.8782 19.4483C14.3133 20.0132 13.6692 20.45 12.9458 20.7589C12.1899 21.0759 11.3974 21.2344 10.5684 21.2344ZM10.5684 20.0152C11.4543 20.0152 12.2752 19.7917 13.0311 19.3446C13.7626 18.9139 14.3438 18.3327 14.7746 17.6012C15.2216 16.8453 15.4451 16.0244 15.4451 15.1384C15.4451 14.2525 15.2216 13.4316 14.7746 12.6757C14.3438 11.9442 13.7626 11.363 13.0311 10.9322C12.2752 10.4852 11.4543 10.2617 10.5684 10.2617C9.68241 10.2617 8.86149 10.4852 8.10559 10.9322C7.37408 11.363 6.79293 11.9442 6.36215 12.6757C5.91512 13.4316 5.6916 14.2525 5.6916 15.1384C5.6916 16.0244 5.91512 16.8453 6.36215 17.6012C6.79293 18.3327 7.37408 18.9139 8.10559 19.3446C8.86149 19.7917 9.68241 20.0152 10.5684 20.0152Z" fill="#9D6100"/>
</svg>
