<svg width="33" height="32" viewBox="0 0 33 32" fill="none" xmlns="http://www.w3.org/2000/svg">
<path d="M29.3113 18.0822L29.6169 14.8352C29.8569 12.285 29.977 11.0099 29.5407 10.4828C29.3047 10.1977 28.9838 10.023 28.6407 9.99288C28.0064 9.93717 27.2099 10.844 25.6169 12.6575C24.793 13.5954 24.3811 14.0644 23.9215 14.137C23.6669 14.1772 23.4075 14.1358 23.1723 14.0175C22.748 13.804 22.4651 13.2242 21.8993 12.0648L18.9168 5.95322C17.8476 3.76224 17.3129 2.66675 16.4993 2.66675C15.6858 2.66675 15.1511 3.76224 14.0819 5.95323L11.0994 12.0648C10.5336 13.2242 10.2507 13.804 9.82636 14.0175C9.59124 14.1358 9.3318 14.1772 9.07718 14.137C8.61764 14.0644 8.2057 13.5954 7.38184 12.6575C5.78879 10.844 4.99226 9.93717 4.358 9.99288C4.01489 10.023 3.69399 10.1977 3.458 10.4828C3.02174 11.0099 3.14175 12.285 3.38176 14.8352L3.68735 18.0821C4.19089 23.4323 4.44265 26.1074 6.01947 27.7204C7.5963 29.3334 9.95957 29.3334 14.6861 29.3334H18.3126C23.0391 29.3334 25.4024 29.3334 26.9792 27.7204C28.556 26.1074 28.8078 23.4323 29.3113 18.0822Z" stroke="#2C364E" stroke-width="2"/>
<path d="M15.3613 16.6971C15.8679 15.7882 16.1213 15.3337 16.5 15.3337C16.8787 15.3337 17.1321 15.7882 17.6387 16.6971L17.7698 16.9322C17.9138 17.1905 17.9858 17.3197 18.098 17.4049C18.2103 17.4901 18.3501 17.5217 18.6296 17.585L18.8842 17.6426C19.8681 17.8652 20.36 17.9765 20.477 18.3528C20.5941 18.7292 20.2587 19.1214 19.588 19.9057L19.4144 20.1086C19.2238 20.3315 19.1285 20.443 19.0857 20.5808C19.0428 20.7187 19.0572 20.8674 19.086 21.1648L19.1122 21.4355C19.2136 22.482 19.2644 23.0052 18.9579 23.2378C18.6515 23.4704 18.1909 23.2584 17.2697 22.8342L17.0314 22.7245C16.7696 22.6039 16.6387 22.5437 16.5 22.5437C16.3613 22.5437 16.2304 22.6039 15.9686 22.7245L15.7303 22.8342C14.8091 23.2584 14.3485 23.4704 14.0421 23.2378C13.7356 23.0052 13.7864 22.482 13.8878 21.4355L13.914 21.1648C13.9428 20.8674 13.9572 20.7187 13.9143 20.5808C13.8715 20.443 13.7762 20.3315 13.5856 20.1086L13.412 19.9057C12.7413 19.1214 12.4059 18.7292 12.523 18.3528C12.64 17.9765 13.1319 17.8652 14.1158 17.6426L14.3704 17.585C14.6499 17.5217 14.7897 17.4901 14.902 17.4049C15.0142 17.3197 15.0862 17.1905 15.2302 16.9322L15.3613 16.6971Z" stroke="#2C364E" stroke-width="2"/>
</svg>
