<svg width="24" height="24" viewBox="0 0 24 24" fill="none" xmlns="http://www.w3.org/2000/svg">
<g clip-path="url(#clip0_130_25049)">
<path d="M12.1224 0L9.91837 2.06061L6.4898 1.33333L5.14286 4.36364L2.20408 5.09091L2.57143 8.36364L0 10.6667L1.83673 13.2121L0.857143 16.1212L3.67347 17.9394L4.04082 21.0909H7.59184L9.79592 24L12.1224 22.0606L15.0612 23.7576L16.7755 21.0909H20.0816L20.5714 17.9394L23.3878 16.1212L22.2857 13.2121L24 10.6667L21.6735 8.36364L21.9184 5.09091L19.2245 4.36364L17.6327 1.33333L14.449 2.06061L12.1224 0Z" fill="#4F46E5"/>
<path d="M7.95887 11.7552L6.73438 13.2246L10.8976 17.0205L17.8772 8.57155L16.2854 7.22461L10.5303 14.0818L7.95887 11.7552Z" fill="white"/>
</g>
<defs>
<clipPath id="clip0_130_25049">
<rect width="24" height="24" fill="white"/>
</clipPath>
</defs>
</svg>
