<svg width="24" height="24" viewBox="0 0 24 24" fill="none" xmlns="http://www.w3.org/2000/svg">
<path d="M21.4949 19.2709C21.4949 20.5296 20.4739 21.5506 19.2152 21.5506C17.9545 21.5506 16.9336 20.5296 16.9336 19.2709C16.9336 18.0122 17.9545 16.9912 19.2152 16.9912C20.4739 16.9912 21.4949 18.0122 21.4949 19.2709Z" fill="white"/>
<path d="M21.4949 19.2709C21.4949 20.5296 20.4739 21.5506 19.2152 21.5506C17.9545 21.5506 16.9336 20.5296 16.9336 19.2709C16.9336 18.0122 17.9545 16.9912 19.2152 16.9912C20.4739 16.9912 21.4949 18.0122 21.4949 19.2709Z" fill="#5B58CF"/>
<path d="M23.2162 12.4799C23.3213 12.6412 23.3773 12.8295 23.3773 13.0219V17.8392C23.3773 17.9467 23.3458 18.049 23.2881 18.133C23.2225 18.23 23.1255 18.3035 23.0101 18.3402C22.9602 18.3559 22.9078 18.3638 22.8527 18.3638H2.16522C2.11015 18.3638 2.05769 18.3559 2.01048 18.3402C1.84523 18.2903 1.71408 18.1592 1.66424 17.9939C1.6485 17.9467 1.64062 17.8943 1.64062 17.8392V15.6521C1.64062 15.378 1.86278 15.1559 2.13681 15.1559H13.9998C14.1825 15.1559 14.3306 15.0078 14.3306 14.8251V8.41717C14.3306 7.98128 14.684 7.62793 15.1198 7.62793H19.5132C19.8482 7.62793 20.1606 7.79695 20.3438 8.07736L21.0822 9.20695L23.2162 12.4799Z" fill="#5B58CF"/>
<path d="M22.1986 12.4799C22.3037 12.6412 22.3597 12.8295 22.3597 13.0219V17.8392C22.3597 17.9467 22.3282 18.049 22.2705 18.133C22.205 18.23 22.1079 18.3035 21.9925 18.3402C21.9427 18.3559 21.8902 18.3638 21.8351 18.3638H1.14764C1.09257 18.3638 1.04011 18.3559 0.992896 18.3402C0.827646 18.2903 0.696498 18.1592 0.646661 17.9939C0.630924 17.9467 0.623047 17.8943 0.623047 17.8392V15.6521C0.623047 15.378 0.845198 15.1559 1.11923 15.1559H12.9822C13.1649 15.1559 13.313 15.0078 13.313 14.8251V8.41717C13.313 7.98128 13.6664 7.62793 14.1023 7.62793H18.4956C18.8306 7.62793 19.143 7.79695 19.3263 8.07736L20.0646 9.20695L22.1986 12.4799Z" fill="#A3BAF2"/>
<path d="M22.3237 13.7991V15.2944H22.0895C21.6765 15.2944 21.3418 14.9597 21.3418 14.5467C21.3418 14.1338 21.6765 13.7991 22.0895 13.7991H22.3237Z" fill="#FAD014"/>
<path d="M21.2376 12.9274L19.186 9.78058L18.4644 8.67676H14.3613V12.9274H21.2376Z" fill="white"/>
<path d="M0.623047 16.8315V17.8393C0.623047 17.8943 0.630924 17.9468 0.646658 17.994C0.696503 18.1592 0.827648 18.2904 0.992896 18.3402C1.04011 18.356 1.09257 18.3639 1.14764 18.3639H21.8351C21.8902 18.3639 21.9426 18.356 21.9925 18.3402C22.1079 18.3035 22.205 18.2301 22.2705 18.133C22.3282 18.0491 22.3597 17.9468 22.3597 17.8393V16.8315H0.623047Z" fill="#87E9F3"/>
<path d="M6.79176 19.2709C6.79176 20.5296 5.77081 21.5506 4.51207 21.5506C3.25142 21.5506 2.23047 20.5296 2.23047 19.2709C2.23047 18.0122 3.25142 16.9912 4.51207 16.9912C5.77081 16.9912 6.79176 18.0122 6.79176 19.2709Z" fill="white"/>
<path d="M6.79176 19.2709C6.79176 20.5296 5.77081 21.5506 4.51207 21.5506C3.25142 21.5506 2.23047 20.5296 2.23047 19.2709C2.23047 18.0122 3.25142 16.9912 4.51207 16.9912C5.77081 16.9912 6.79176 18.0122 6.79176 19.2709Z" fill="#E2F2FF"/>
<path d="M5.53911 19.2708C5.53911 19.8373 5.07963 20.2968 4.51315 20.2968C3.9458 20.2968 3.48633 19.8373 3.48633 19.2708C3.48633 18.7043 3.9458 18.2449 4.51315 18.2449C5.07963 18.2449 5.53911 18.7043 5.53911 19.2708Z" fill="#5B58CF"/>
<path d="M20.4285 19.2709C20.4285 20.5296 19.4075 21.5506 18.1488 21.5506C16.8881 21.5506 15.8672 20.5296 15.8672 19.2709C15.8672 18.0122 16.8881 16.9912 18.1488 16.9912C19.4075 16.9912 20.4285 18.0122 20.4285 19.2709Z" fill="white"/>
<path d="M20.4285 19.2709C20.4285 20.5296 19.4075 21.5506 18.1488 21.5506C16.8881 21.5506 15.8672 20.5296 15.8672 19.2709C15.8672 18.0122 16.8881 16.9912 18.1488 16.9912C19.4075 16.9912 20.4285 18.0122 20.4285 19.2709Z" fill="#E2F2FF"/>
<path d="M19.1739 19.2708C19.1739 19.8373 18.7144 20.2968 18.1479 20.2968C17.5806 20.2968 17.1211 19.8373 17.1211 19.2708C17.1211 18.7043 17.5806 18.2449 18.1479 18.2449C18.7144 18.2449 19.1739 18.7043 19.1739 19.2708Z" fill="#5B58CF"/>
<path d="M1.38086 7.55012V15.1545H12.5567V7.55012C12.5567 7.0934 12.1865 6.72314 11.7298 6.72314H2.20784C1.75111 6.72314 1.38086 7.0934 1.38086 7.55012Z" fill="white"/>
<path d="M1.38086 7.55012V15.1545H12.5567V7.55012C12.5567 7.0934 12.1865 6.72314 11.7298 6.72314H2.20784C1.75111 6.72314 1.38086 7.0934 1.38086 7.55012Z" fill="#FAD014"/>
<path d="M8.81477 6.72339V10.0677C8.81477 10.3359 8.51234 10.4926 8.29322 10.338L7.13404 9.51973C7.01821 9.43797 6.86317 9.43911 6.74857 9.52256L5.64855 10.3235C5.42993 10.4827 5.12305 10.3265 5.12305 10.0561V6.72339H8.81477Z" fill="#FB961D"/>
<path d="M2.67179 2.83627H2.21293C2.11467 2.83627 2.03516 2.75675 2.03516 2.65849C2.03516 2.56023 2.11467 2.48071 2.21293 2.48071H2.67179C2.77005 2.48071 2.84957 2.56023 2.84957 2.65849C2.84957 2.75675 2.77005 2.83627 2.67179 2.83627ZM3.45512 2.05311C3.35686 2.05311 3.27734 1.97359 3.27734 1.87533V1.4163C3.27734 1.31804 3.35686 1.23853 3.45512 1.23853C3.55338 1.23853 3.6329 1.31804 3.6329 1.4163V1.87533C3.6329 1.9736 3.55338 2.05311 3.45512 2.05311ZM3.45512 4.07846C3.35686 4.07846 3.27734 3.99894 3.27734 3.90068V3.44183C3.27734 3.34356 3.35686 3.26405 3.45512 3.26405C3.55338 3.26405 3.6329 3.34356 3.6329 3.44183V3.90068C3.6329 3.99894 3.55338 4.07846 3.45512 4.07846ZM4.69713 2.83627H4.23828C4.14002 2.83627 4.0605 2.75675 4.0605 2.65849C4.0605 2.56023 4.14002 2.48071 4.23828 2.48071H4.69713C4.7954 2.48071 4.87491 2.56023 4.87491 2.65849C4.87491 2.75675 4.7954 2.83627 4.69713 2.83627ZM4.00894 2.28245C3.96345 2.28245 3.91797 2.26509 3.88325 2.23037C3.8138 2.16092 3.8138 2.04842 3.88325 1.97898L4.20773 1.6545C4.27717 1.58505 4.38967 1.58505 4.45911 1.6545C4.52856 1.72394 4.52856 1.83644 4.45911 1.90589L4.13463 2.23037C4.09991 2.26509 4.05443 2.28245 4.00894 2.28245ZM2.57665 3.71474C2.53116 3.71474 2.48568 3.69738 2.45095 3.66266C2.38151 3.59321 2.38151 3.48071 2.45095 3.41127L2.77543 3.08662C2.84488 3.01717 2.95738 3.01717 3.02682 3.08662C3.09627 3.15606 3.09627 3.26856 3.02682 3.338L2.70234 3.66266C2.66762 3.69738 2.62213 3.71474 2.57665 3.71474ZM4.33342 3.71474C4.28793 3.71474 4.24245 3.69738 4.20773 3.66266L3.88325 3.338C3.8138 3.26856 3.8138 3.15606 3.88325 3.08662C3.95269 3.01717 4.06519 3.01717 4.13463 3.08662L4.45911 3.41127C4.52856 3.48071 4.52856 3.59321 4.45911 3.66266C4.42439 3.69738 4.37891 3.71474 4.33342 3.71474ZM2.90113 2.28245C2.85564 2.28245 2.81016 2.26509 2.77543 2.23037L2.45095 1.90589C2.38151 1.83644 2.38151 1.72394 2.45095 1.6545C2.5204 1.58505 2.6329 1.58505 2.70234 1.6545L3.02682 1.97898C3.09627 2.04842 3.09627 2.16092 3.02682 2.23037C2.9921 2.26509 2.94661 2.28245 2.90113 2.28245Z" fill="#FAD014"/>
<path d="M21.7112 3.14537H21.2483C21.1501 3.14537 21.0706 3.06586 21.0706 2.96759C21.0706 2.86933 21.1501 2.78982 21.2483 2.78982H21.7112C21.8095 2.78982 21.889 2.86933 21.889 2.96759C21.889 3.06586 21.8095 3.14537 21.7112 3.14537ZM20.427 2.28513C20.3287 2.28513 20.2492 2.20561 20.2492 2.10735V1.64433C20.2492 1.54607 20.3287 1.46655 20.427 1.46655C20.5253 1.46655 20.6048 1.54607 20.6048 1.64433V2.10735C20.6048 2.20562 20.5253 2.28513 20.427 2.28513ZM20.427 4.32818C20.3287 4.32818 20.2492 4.24867 20.2492 4.15041V3.68739C20.2492 3.58912 20.3287 3.50961 20.427 3.50961C20.5253 3.50961 20.6048 3.58912 20.6048 3.68739V4.15041C20.6048 4.24867 20.5253 4.32818 20.427 4.32818ZM19.6369 3.07506H19.1739C19.0756 3.07506 18.9961 2.99554 18.9961 2.89728C18.9961 2.79902 19.0756 2.7195 19.1739 2.7195H19.6369C19.7352 2.7195 19.8147 2.79902 19.8147 2.89728C19.8147 2.99554 19.7352 3.07506 19.6369 3.07506ZM20.9857 2.51655C20.9402 2.51655 20.8947 2.49919 20.86 2.46447C20.7905 2.39502 20.7905 2.28252 20.86 2.21308L21.1872 1.88565C21.2567 1.8162 21.3692 1.8162 21.4386 1.88565C21.5081 1.95509 21.5081 2.06759 21.4386 2.13704L21.1114 2.46447C21.0766 2.49919 21.0312 2.51655 20.9857 2.51655ZM19.5409 3.96117C19.4954 3.96117 19.4499 3.94381 19.4152 3.90909C19.3457 3.83964 19.3457 3.72714 19.4152 3.6577L19.7426 3.33027C19.8121 3.26082 19.9246 3.26082 19.994 3.33027C20.0635 3.39971 20.0635 3.51221 19.994 3.58166L19.6666 3.90909C19.6319 3.94381 19.5864 3.96117 19.5409 3.96117Z" fill="#ED7149"/>
<path d="M21.3131 3.9611C21.2676 3.9611 21.2221 3.94374 21.1874 3.90902L20.8602 3.58159C20.7907 3.51214 20.7907 3.39964 20.8602 3.3302C20.9296 3.26075 21.0421 3.26075 21.1115 3.3302L21.4388 3.65763C21.5082 3.72707 21.5082 3.83957 21.4388 3.90902C21.4041 3.94374 21.3586 3.9611 21.3131 3.9611ZM19.8685 2.51648C19.823 2.51648 19.7775 2.49912 19.7428 2.4644L19.4154 2.13697C19.3459 2.06752 19.3459 1.95502 19.4154 1.88558C19.4848 1.81614 19.5973 1.81613 19.6668 1.88558L19.9942 2.21301C20.0636 2.28246 20.0636 2.39496 19.9942 2.4644C19.9595 2.49912 19.914 2.51648 19.8685 2.51648Z" fill="#ED7149"/>
<path d="M9.56814 5.71741C9.05026 5.71741 8.62891 5.29623 8.62891 4.77834C8.62891 4.25977 9.05026 3.83789 9.56814 3.83789C10.0867 3.83789 10.5086 4.25977 10.5086 4.77834C10.5086 5.29622 10.0867 5.71741 9.56814 5.71741ZM9.56814 4.19345C9.24627 4.19345 8.98446 4.45577 8.98446 4.77834C8.98446 5.10004 9.24627 5.36185 9.56814 5.36185C9.89071 5.36185 10.153 5.10004 10.153 4.77834C10.153 4.45577 9.89071 4.19345 9.56814 4.19345Z" fill="#A2E55A"/>
<path d="M23.3665 12.3827L20.4939 7.97996C20.2771 7.64819 19.9108 7.4501 19.5144 7.4501C17.7606 7.4501 16.1688 7.4501 14.1023 7.4501C13.5691 7.4501 13.1352 7.88395 13.1352 8.41711V14.8249C13.1352 14.9093 13.0667 14.9781 12.9823 14.9781H12.7351V7.5501C12.7351 6.99611 12.2844 6.54541 11.7304 6.54541C6.33631 6.54541 7.48614 6.54541 2.20851 6.54541C1.65434 6.54541 1.20364 6.99611 1.20364 7.5501V14.9781H1.11927C0.74757 14.9781 0.445312 15.2803 0.445312 15.652C0.445312 16.4939 0.445312 17.0493 0.445312 17.839C0.445312 17.9142 0.456424 17.9852 0.476562 18.0452C0.543924 18.2689 0.717881 18.4428 0.936457 18.5086C1.00156 18.5303 1.07257 18.5414 1.14757 18.5414H2.1648C2.09292 18.772 2.05417 19.0169 2.05417 19.2708C2.05417 20.6258 3.15746 21.7282 4.51354 21.7282C5.86857 21.7282 6.971 20.6258 6.971 19.2708C6.971 19.0169 6.93229 18.772 6.8605 18.5414H15.8006C15.7287 18.772 15.6899 19.0169 15.6899 19.2708C15.6899 20.8252 17.1322 22.0128 18.6825 21.6683C18.8542 21.7072 19.0326 21.7282 19.216 21.7282C20.571 21.7282 21.6734 20.6258 21.6734 19.2708C21.6734 19.0162 21.6309 18.7722 21.5581 18.5414C21.5969 18.5414 22.8801 18.5414 22.854 18.5414C22.9273 18.5414 22.9983 18.5307 23.0651 18.5095C23.2163 18.4614 23.3484 18.3631 23.4359 18.2334C23.5148 18.1187 23.5564 17.9822 23.5564 17.8392V13.0218C23.5564 12.7945 23.4908 12.5735 23.3665 12.3827ZM5.30121 6.90097H8.6375V10.0676C8.6375 10.1517 8.57969 10.1906 8.55486 10.2034C8.52986 10.2162 8.46458 10.2407 8.39635 10.1925L7.23715 9.3744C7.14913 9.31225 7.04653 9.28118 6.94392 9.28118C6.83872 9.28118 6.73368 9.31381 6.64427 9.37875L5.54427 10.1796C5.47587 10.2294 5.4099 10.2051 5.3849 10.1923C5.35972 10.1796 5.30122 10.1407 5.30122 10.056L5.30121 6.90097ZM1.5592 7.5501C1.5592 7.19211 1.85052 6.90097 2.20851 6.90097H4.94566V10.056C4.94566 10.2484 5.05208 10.422 5.22361 10.5093C5.39514 10.5963 5.59809 10.5801 5.75365 10.4671L6.85365 9.66624C6.9066 9.62736 6.9783 9.62666 7.03195 9.66486L8.19115 10.4831C8.27899 10.5449 8.38142 10.5765 8.48438 10.5765C8.56424 10.5765 8.64445 10.5574 8.71858 10.5192C8.88785 10.4313 8.99306 10.2584 8.99306 10.0676V6.90097H11.7304C12.0884 6.90097 12.3795 7.19211 12.3795 7.5501V14.9767H1.5592V7.5501ZM1.14757 18.1859C1.11094 18.1859 1.07795 18.181 1.04427 18.1699C0.936459 18.1374 0.849307 18.0503 0.815279 17.9374C0.805728 17.9088 0.800868 17.8758 0.800868 17.839C0.800868 17.8154 0.800868 16.9613 0.800868 17.0091H3.55234C3.01061 17.2399 2.57033 17.6607 2.3102 18.1859H1.14757ZM4.51354 21.3727C3.35347 21.3727 2.40972 20.4298 2.40972 19.2708C2.40972 18.1117 3.35347 17.1689 4.51354 17.1689C5.67257 17.1689 6.61545 18.1117 6.61545 19.2708C6.61545 20.4298 5.67257 21.3727 4.51354 21.3727ZM6.71519 18.1859C6.45527 17.6607 6.01532 17.2399 5.47402 17.0091H17.1881C16.6464 17.2399 16.2061 17.6607 15.946 18.1859H6.71519ZM18.6831 21.3015C18.6815 21.301 18.6798 21.3008 18.6782 21.3004C18.6749 21.3024 18.6712 21.3036 18.6679 21.3053C18.5017 21.3478 18.3286 21.3727 18.1493 21.3727C16.9892 21.3727 16.0455 20.4298 16.0455 19.2708C16.0455 18.1117 16.9892 17.1689 18.1493 17.1689C19.3083 17.1689 20.2512 18.1117 20.2512 19.2708C20.2512 20.2451 19.584 21.0643 18.6831 21.3015ZM19.4351 21.361C20.1367 20.9279 20.6068 20.1543 20.6068 19.2708C20.6068 19.0169 20.5681 18.772 20.4963 18.5414H21.1829C21.2681 18.769 21.3179 19.0136 21.3179 19.2708C21.3179 20.3558 20.4915 21.2511 19.4351 21.361ZM22.1819 17.839C22.1819 17.9102 22.1618 17.977 22.1233 18.0333C22.0795 18.0978 22.0141 18.1466 21.9389 18.1706C21.9068 18.1807 21.8719 18.1859 21.8351 18.1859C21.8081 18.1859 20.2687 18.1859 20.351 18.1859C20.091 17.6607 19.6511 17.2399 19.1098 17.0091H22.1819C22.1819 17.0364 22.1819 17.8852 22.1819 17.839ZM22.1819 13.6211H22.091C21.5807 13.6211 21.1656 14.0362 21.1656 14.5465C21.1656 15.0569 21.5807 15.472 22.091 15.472H22.1819V16.6536H0.800868V15.652C0.800868 15.4765 0.94375 15.3336 1.11927 15.3336C4.89399 15.3336 8.89897 15.3336 12.9823 15.3336C13.2627 15.3336 13.4908 15.1055 13.4908 14.8249V8.41711C13.4908 8.07996 13.7651 7.80565 14.1023 7.80565C17.9921 7.80565 16.2522 7.80565 18.4955 7.80565C18.7715 7.80565 19.0264 7.9435 19.1774 8.1744L22.0497 12.5768C22.1361 12.7096 22.1819 12.8636 22.1819 13.0218V13.6211ZM22.1476 13.9767V15.1164H22.091C21.7767 15.1164 21.5212 14.8607 21.5212 14.5465C21.5212 14.2322 21.7767 13.9767 22.091 13.9767H22.1476ZM23.2009 17.8392C23.2009 17.9102 23.1807 17.977 23.1422 18.0333C23.0979 18.0989 23.034 18.1463 22.9575 18.1706C22.9252 18.1808 22.8911 18.1859 22.854 18.1859H22.4446C22.5044 18.0815 22.5375 17.9633 22.5375 17.839C22.5375 17.8118 22.5375 16.7753 22.5375 16.8314V13.0218C22.5375 12.7945 22.4719 12.5735 22.3476 12.3827L19.475 7.97996C19.4333 7.91624 19.3847 7.85912 19.3328 7.80565H19.5144C19.7905 7.80565 20.0453 7.9435 20.1964 8.1744L23.0686 12.5768C23.155 12.7096 23.2009 12.8636 23.2009 13.0218L23.2009 17.8392Z" fill="#402DA3"/>
<path d="M18.6139 8.57958C18.5811 8.52923 18.5252 8.49902 18.4651 8.49902H14.3622C14.2639 8.49902 14.1844 8.57854 14.1844 8.6768V12.9273C14.1844 13.0256 14.2639 13.1051 14.3622 13.1051H21.2384C21.3037 13.1051 21.3636 13.0693 21.3947 13.012C21.4257 12.9546 21.423 12.885 21.3874 12.8303L18.6139 8.57958ZM14.54 12.7495V8.85458H18.369L20.9103 12.7495H14.54ZM4.51324 18.0669C3.849 18.0669 3.30872 18.607 3.30872 19.2707C3.30872 19.9344 3.849 20.4744 4.51324 20.4744C5.17695 20.4744 5.71706 19.9344 5.71706 19.2707C5.71706 18.607 5.17695 18.0669 4.51324 18.0669ZM4.51324 20.1188C4.04518 20.1188 3.66428 19.7384 3.66428 19.2707C3.66428 18.803 4.04518 18.4225 4.51324 18.4225C4.98095 18.4225 5.3615 18.803 5.3615 19.2707C5.3615 19.7384 4.98095 20.1188 4.51324 20.1188ZM18.149 18.0669C17.4848 18.0669 16.9445 18.607 16.9445 19.2707C16.9445 19.9344 17.4848 20.4744 18.149 20.4744C18.8127 20.4744 19.3528 19.9344 19.3528 19.2707C19.3528 18.607 18.8127 18.0669 18.149 18.0669ZM18.149 20.1188C17.6809 20.1188 17.3 19.7384 17.3 19.2707C17.3 18.803 17.6809 18.4225 18.149 18.4225C18.6167 18.4225 18.9973 18.803 18.9973 19.2707C18.9973 19.7384 18.6167 20.1188 18.149 20.1188ZM1.95959 22.4058H0.906293C0.80803 22.4058 0.728516 22.4853 0.728516 22.5836C0.728516 22.6818 0.80803 22.7614 0.906293 22.7614H1.95959C2.05785 22.7614 2.13737 22.6818 2.13737 22.5836C2.13737 22.4853 2.05786 22.4058 1.95959 22.4058ZM20.262 22.4058H17.9705C17.8723 22.4058 17.7928 22.4853 17.7928 22.5836C17.7928 22.6818 17.8723 22.7614 17.9705 22.7614H20.262C20.3603 22.7614 20.4398 22.6818 20.4398 22.5836C20.4398 22.4853 20.3603 22.4058 20.262 22.4058ZM6.51376 22.4058H4.22244C4.12418 22.4058 4.04466 22.4853 4.04466 22.5836C4.04466 22.6818 4.12418 22.7614 4.22244 22.7614H6.51376C6.61202 22.7614 6.69154 22.6818 6.69154 22.5836C6.69154 22.4853 6.61202 22.4058 6.51376 22.4058ZM11.0966 22.4058H8.80508C8.70681 22.4058 8.6273 22.4853 8.6273 22.5836C8.6273 22.6818 8.70681 22.7614 8.80508 22.7614H11.0966C11.1948 22.7614 11.2743 22.6818 11.2743 22.5836C11.2743 22.4853 11.1948 22.4058 11.0966 22.4058ZM15.6792 22.4058H13.3879C13.2896 22.4058 13.2101 22.4853 13.2101 22.5836C13.2101 22.6818 13.2896 22.7614 13.3879 22.7614H15.6792C15.7775 22.7614 15.857 22.6818 15.857 22.5836C15.857 22.4853 15.7775 22.4058 15.6792 22.4058ZM23.3789 22.4058H22.3254C22.2271 22.4058 22.1476 22.4853 22.1476 22.5836C22.1476 22.6818 22.2271 22.7614 22.3254 22.7614H23.3789C23.4771 22.7614 23.5566 22.6818 23.5566 22.5836C23.5566 22.4853 23.4771 22.4058 23.3789 22.4058Z" fill="#402DA3"/>
</svg>
