<svg width="33" height="32" viewBox="0 0 33 32" fill="none" xmlns="http://www.w3.org/2000/svg">
<path d="M9.83268 23.9978C6.93265 23.9816 5.3621 23.853 4.33759 22.8285C3.16602 21.6569 3.16602 19.7713 3.16602 16.0001L3.16602 10.6667C3.16602 6.89551 3.16602 5.00989 4.33759 3.83832C5.50916 2.66675 7.39478 2.66675 11.166 2.66675L21.8327 2.66675C25.6039 2.66675 27.4895 2.66675 28.6611 3.83832C29.8327 5.00989 29.8327 6.89551 29.8327 10.6667V16.0001C29.8327 19.7713 29.8327 21.6569 28.6611 22.8285C27.688 23.8017 26.2221 23.9665 23.5922 23.9944L22.4993 23.9978" stroke="#3F3F46" stroke-width="2"/>
<path d="M12.5 8L20.5 8" stroke="#3F3F46" stroke-width="2" stroke-linecap="round"/>
<path d="M9.83398 12.6667H23.1673" stroke="#3F3F46" stroke-width="2" stroke-linecap="round"/>
<path d="M15.0206 18.5938C15.873 17.8675 17.1266 17.8675 17.9789 18.5938C18.3441 18.9051 18.7982 19.0932 19.2766 19.1314C20.3929 19.2204 21.2793 20.1069 21.3684 21.2232C21.4066 21.7015 21.5947 22.1556 21.9059 22.5209C22.6323 23.3732 22.6323 24.6268 21.9059 25.4791C21.5947 25.8444 21.4066 26.2985 21.3684 26.7768C21.2793 27.8931 20.3929 28.7796 19.2766 28.8686C18.7982 28.9068 18.3441 29.0949 17.9789 29.4062C17.1266 30.1325 15.873 30.1325 15.0206 29.4062C14.6554 29.0949 14.2013 28.9068 13.7229 28.8686C12.6066 28.7796 11.7202 27.8931 11.6311 26.7768C11.5929 26.2985 11.4048 25.8444 11.0936 25.4791C10.3672 24.6268 10.3672 23.3732 11.0936 22.5209C11.4048 22.1556 11.5929 21.7015 11.6311 21.2232C11.7202 20.1069 12.6066 19.2204 13.7229 19.1314C14.2013 19.0932 14.6554 18.9051 15.0206 18.5938Z" stroke="#3F3F46" stroke-width="2"/>
<path d="M14.5 24.2667L15.6429 25.3334L18.5 22.6667" stroke="#3F3F46" stroke-width="2" stroke-linecap="round" stroke-linejoin="round"/>
</svg>
