<svg width="17" height="16" viewBox="0 0 17 16" fill="none" xmlns="http://www.w3.org/2000/svg">
<path d="M8.57129 5.33331V7.99998L10.238 9.66665" stroke="#3F3F46" stroke-linecap="round" stroke-linejoin="round"/>
<path d="M4.30738 3.73615L3.95383 3.3826L4.30738 3.73615ZM3.46313 4.58041L2.96314 4.58292C2.96451 4.8571 3.18644 5.07902 3.46062 5.0804L3.46313 4.58041ZM5.15765 5.08893C5.43379 5.09032 5.65877 4.86759 5.66016 4.59145C5.66155 4.31531 5.43882 4.09033 5.16268 4.08894L5.16016 4.58894L5.15765 5.08893ZM3.9546 2.88086C3.95321 2.60472 3.72823 2.38199 3.45209 2.38338C3.17595 2.38477 2.95322 2.60975 2.95461 2.88589L3.4546 2.88337L3.9546 2.88086ZM3.12236 7.19001C3.15986 6.91642 2.96848 6.66424 2.69489 6.62674C2.42131 6.58924 2.16912 6.78062 2.13162 7.05421L2.62699 7.12211L3.12236 7.19001ZM12.7926 3.77879L13.1461 3.42524C10.5993 0.878447 6.48378 0.852656 3.95383 3.3826L4.30738 3.73615L4.66094 4.08971C6.79367 1.95697 10.276 1.96936 12.439 4.13235L12.7926 3.77879ZM4.35002 12.2213L3.99647 12.5749C6.54326 15.1217 10.6588 15.1475 13.1887 12.6175L12.8352 12.264L12.4816 11.9104C10.3489 14.0432 6.86656 14.0308 4.70358 11.8678L4.35002 12.2213ZM12.8352 12.264L13.1887 12.6175C15.7187 10.0876 15.6929 5.97204 13.1461 3.42524L12.7926 3.77879L12.439 4.13235C14.602 6.29533 14.6144 9.77768 12.4816 11.9104L12.8352 12.264ZM4.30738 3.73615L3.95383 3.3826L3.10958 4.22685L3.46313 4.58041L3.81668 4.93396L4.66094 4.08971L4.30738 3.73615ZM3.46313 4.58041L3.46062 5.0804L5.15765 5.08893L5.16016 4.58894L5.16268 4.08894L3.46564 4.08041L3.46313 4.58041ZM3.46313 4.58041L3.96312 4.5779L3.9546 2.88086L3.4546 2.88337L2.95461 2.88589L2.96314 4.58292L3.46313 4.58041ZM2.62699 7.12211L2.13162 7.05421C1.864 9.00667 2.48723 11.0656 3.99647 12.5749L4.35002 12.2213L4.70358 11.8678C3.42319 10.5874 2.89571 8.84355 3.12236 7.19001L2.62699 7.12211Z" fill="#3F3F46"/>
</svg>
