<svg width="24" height="25" viewBox="0 0 24 25" fill="none" xmlns="http://www.w3.org/2000/svg">
<path d="M21.544 11.6164C21.848 12.0427 22 12.2559 22 12.5714C22 12.8869 21.848 13.1001 21.544 13.5264C20.1779 15.442 16.6892 19.5714 12 19.5714C7.31078 19.5714 3.8221 15.442 2.45604 13.5264C2.15201 13.1001 2 12.8869 2 12.5714C2 12.2559 2.15201 12.0427 2.45604 11.6164C3.8221 9.70085 7.31078 5.57141 12 5.57141C16.6892 5.57141 20.1779 9.70085 21.544 11.6164Z" stroke="#3F3F46" stroke-width="1.5"/>
<path d="M15 12.5714C15 10.9145 13.6569 9.57141 12 9.57141C10.3431 9.57141 9 10.9145 9 12.5714C9 14.2283 10.3431 15.5714 12 15.5714C13.6569 15.5714 15 14.2283 15 12.5714Z" stroke="#3F3F46" stroke-width="1.5"/>
</svg>
