<svg width="24" height="25" viewBox="0 0 24 25" fill="none" xmlns="http://www.w3.org/2000/svg">
<path d="M7.47817 4.95277C9.65285 3.31759 10.7402 2.5 12 2.5C13.2598 2.5 14.3471 3.31759 16.5218 4.95277L18.5122 6.44933C20.5086 7.95049 21.5068 8.70106 21.8632 9.79857C22.2196 10.8961 21.8488 12.0774 21.107 14.44L20.1987 17.333C19.4169 19.8234 19.0259 21.0685 18.0401 21.7843C17.0543 22.5 15.7302 22.5 13.082 22.5H10.918C8.2698 22.5 6.94571 22.5 5.95989 21.7843C4.97406 21.0685 4.58314 19.8234 3.80129 17.333L2.89299 14.44C2.15124 12.0774 1.78037 10.8961 2.13677 9.79857C2.49317 8.70106 3.49139 7.95049 5.48783 6.44933L7.47817 4.95277Z" stroke="#3F3F46" stroke-width="1.5"/>
<path d="M10.1165 10.3273C11.0309 9.76108 11.4882 9.47799 11.9906 9.50134C12.4929 9.52468 12.9214 9.84894 13.7783 10.4974L14.4662 11.018C15.3519 11.6883 15.7948 12.0235 15.946 12.5138C16.0972 13.0041 15.9189 13.5272 15.5625 14.5734L15.3544 15.1843C15.0321 16.1303 14.8709 16.6034 14.5002 16.8959C14.1295 17.1885 13.6281 17.2385 12.6253 17.3384L12.0522 17.3955C10.7626 17.524 10.1178 17.5882 9.63256 17.2595C9.14736 16.9308 8.9739 16.3122 8.62699 15.0751L8.35683 14.1117C8.04673 13.0058 7.89168 12.4529 8.08546 11.9588C8.27924 11.4648 8.77048 11.1607 9.75295 10.5524L10.1165 10.3273Z" stroke="#3F3F46" stroke-width="1.5" stroke-linecap="round" stroke-linejoin="round"/>
<path d="M2.5 10L8 12" stroke="#3F3F46" stroke-width="1.5" stroke-linecap="round" stroke-linejoin="round"/>
<path d="M14.5 17L18 21.5" stroke="#3F3F46" stroke-width="1.5" stroke-linecap="round" stroke-linejoin="round"/>
<path d="M16 12.5L21.5 10" stroke="#3F3F46" stroke-width="1.5" stroke-linecap="round" stroke-linejoin="round"/>
<path d="M6.5 21.5L9 17" stroke="#3F3F46" stroke-width="1.5" stroke-linecap="round" stroke-linejoin="round"/>
<path d="M12 9.5V2.5" stroke="#3F3F46" stroke-width="1.5" stroke-linecap="round" stroke-linejoin="round"/>
</svg>
