<svg width="20" height="21" viewBox="0 0 20 21" fill="none" xmlns="http://www.w3.org/2000/svg">
<path d="M15.8327 3.07141H4.16602C2.9875 3.07141 2.39825 3.07141 2.03213 3.41491C1.66602 3.75841 1.66602 4.31126 1.66602 5.41696V5.99181C1.66602 6.85668 1.66602 7.28911 1.88235 7.64759C2.09868 8.00607 2.49391 8.22856 3.28436 8.67353L5.71189 10.0401C6.24223 10.3386 6.50741 10.4879 6.69728 10.6527C7.09267 10.996 7.33608 11.3993 7.44638 11.894C7.49935 12.1316 7.49935 12.4096 7.49935 12.9655L7.49935 15.1901C7.49935 15.948 7.49935 16.327 7.70929 16.6225C7.91922 16.9179 8.29209 17.0637 9.03781 17.3552C10.6033 17.9672 11.3861 18.2732 11.9427 17.9251C12.4993 17.5769 12.4993 16.7813 12.4993 15.1901V12.9655C12.4993 12.4096 12.4993 12.1316 12.5523 11.894C12.6626 11.3993 12.906 10.996 13.3014 10.6527C13.4913 10.4879 13.7565 10.3386 14.2868 10.0401L16.7143 8.67353C17.5048 8.22856 17.9 8.00607 18.1164 7.64759C18.3327 7.28911 18.3327 6.85668 18.3327 5.99181V5.41696C18.3327 4.31126 18.3327 3.75841 17.9666 3.41491C17.6004 3.07141 17.0112 3.07141 15.8327 3.07141Z" stroke="#3F3F46" stroke-width="1.5"/>
</svg>
