<svg width="37" height="36" viewBox="0 0 37 36" fill="none" xmlns="http://www.w3.org/2000/svg">
<path d="M33.75 15.75V18C33.75 25.0711 33.75 28.6066 31.5533 30.8033C29.3566 33 25.8211 33 18.75 33C11.6789 33 8.1434 33 5.9467 30.8033C3.75 28.6066 3.75 25.0711 3.75 18C3.75 10.9289 3.75 7.3934 5.9467 5.1967C8.1434 3 11.6789 3 18.75 3H21" stroke="#2C364E" stroke-width="2.25" stroke-linecap="round"/>
<circle cx="28.2812" cy="6.53125" r="4.15625" stroke="#2C364E" stroke-width="2"/>
<path d="M31.3438 9.59375L32.875 11.125" stroke="#2C364E" stroke-width="2" stroke-linecap="round"/>
<path d="M11.25 21L14.6893 17.5607C15.2751 16.9749 16.2249 16.9749 16.8107 17.5607L19.1893 19.9393C19.7751 20.5251 20.7249 20.5251 21.3107 19.9393L26.25 15M26.25 15V18.75M26.25 15H22.5" stroke="#2C364E" stroke-width="2.25" stroke-linecap="round" stroke-linejoin="round"/>
</svg>
