<svg width="32" height="32" viewBox="0 0 32 32" fill="none" xmlns="http://www.w3.org/2000/svg">
<path d="M6.01392 14.441C9.20238 12.2481 9.47042 8.73709 8.5011 6.37753C8.10043 5.40223 7.9001 4.91458 8.00791 4.65935C8.39326 3.74725 11.1576 3.05375 12 2.66669L17.5629 15.6351C18.3582 17.5803 18.756 18.553 18.6497 19.5516C18.5434 20.5503 17.9494 21.4219 16.7613 23.1651L13.507 27.9403C12.4619 29.4738 11.8929 29.6264 10.1727 28.9534L7.07503 27.7412C5.64672 27.1823 5.33336 26.7682 5.33336 25.2247V15.6496C5.33336 14.9108 5.31439 14.9222 6.01392 14.441Z" stroke="#3F3F46" stroke-width="2" stroke-linecap="round" stroke-linejoin="round"/>
<path d="M14.6787 18.6667H14.6667" stroke="#3F3F46" stroke-width="2.66667" stroke-linecap="round" stroke-linejoin="round"/>
<path d="M16 11.9916L20 2.66669C20.8424 3.05375 23.6067 3.74725 23.992 4.65935C24.0999 4.91458 23.8996 5.40223 23.4989 6.37753C22.5296 8.73709 22.7976 12.2481 25.986 14.441C26.6856 14.9222 26.6667 14.9108 26.6667 15.6496V25.2247C26.6667 26.7682 26.3532 27.1823 24.9249 27.7412L21.8272 28.9534C20.1071 29.6264 19.538 29.4738 18.4929 27.9403L16 24.2823" stroke="#3F3F46" stroke-width="2" stroke-linecap="round" stroke-linejoin="round"/>
<path d="M12 2.66669H20" stroke="#3F3F46" stroke-width="2" stroke-linecap="round" stroke-linejoin="round"/>
</svg>
