<svg width="25" height="24" viewBox="0 0 25 24" fill="none" xmlns="http://www.w3.org/2000/svg">
<path d="M2.96432 9.34375C2.71578 9.34375 2.48898 9.14229 2.50041 8.87895C2.56732 7.33687 2.7548 6.33298 3.28007 5.53884C3.58227 5.08196 3.95764 4.68459 4.38922 4.36468C5.55574 3.5 7.20138 3.5 10.4927 3.5H14.5073C17.7986 3.5 19.4442 3.5 20.6108 4.36468C21.0423 4.68459 21.4177 5.08196 21.7199 5.53884C22.2451 6.33289 22.4326 7.33665 22.4995 8.87843C22.511 9.14208 22.2839 9.34375 22.0351 9.34375C20.6493 9.34375 19.5259 10.533 19.5259 12C19.5259 13.467 20.6493 14.6562 22.0351 14.6562C22.2839 14.6562 22.511 14.8579 22.4995 15.1216C22.4326 16.6634 22.2451 17.6671 21.7199 18.4612C21.4177 18.918 21.0423 19.3154 20.6108 19.6353C19.4442 20.5 17.7986 20.5 14.5073 20.5H10.4927C7.20138 20.5 5.55574 20.5 4.38922 19.6353C3.95764 19.3154 3.58227 18.918 3.28007 18.4612C2.7548 17.667 2.56732 16.6631 2.50041 15.1211C2.48898 14.8577 2.71578 14.6562 2.96432 14.6562C4.35011 14.6562 5.47351 13.467 5.47351 12C5.47351 10.533 4.35011 9.34375 2.96432 9.34375Z" stroke="#3F3F46" stroke-width="1.5" stroke-linejoin="round"/>
<path d="M10 14.5L15 9.5" stroke="#3F3F46" stroke-width="1.5" stroke-linecap="round" stroke-linejoin="round"/>
<path d="M10 9.5H10.0112M14.9887 14.5H15" stroke="#3F3F46" stroke-width="2" stroke-linecap="round" stroke-linejoin="round"/>
</svg>
