<svg width="32" height="32" viewBox="0 0 32 32" fill="none" xmlns="http://www.w3.org/2000/svg">
<path d="M20.6667 17.3333C25.4531 17.3333 29.3333 16.1394 29.3333 14.6667C29.3333 13.1939 25.4531 12 20.6667 12C15.8802 12 12 13.1939 12 14.6667C12 16.1394 15.8802 17.3333 20.6667 17.3333Z" stroke="#3F3F46" stroke-width="2"/>
<path d="M29.3333 20.6667C29.3333 22.1395 25.4532 23.3334 20.6667 23.3334C15.8801 23.3334 12 22.1395 12 20.6667" stroke="#3F3F46" stroke-width="2"/>
<path d="M29.3333 14.6667V26.4C29.3333 28.02 25.4532 29.3334 20.6667 29.3334C15.8801 29.3334 12 28.02 12 26.4V14.6667" stroke="#3F3F46" stroke-width="2"/>
<path d="M11.3334 8.00002C16.1198 8.00002 20 6.80611 20 5.33335C20 3.86059 16.1198 2.66669 11.3334 2.66669C6.54689 2.66669 2.66669 3.86059 2.66669 5.33335C2.66669 6.80611 6.54689 8.00002 11.3334 8.00002Z" stroke="#3F3F46" stroke-width="2"/>
<path d="M8.00002 14.6667C5.47761 14.3597 3.1599 13.566 2.66669 12M8.00002 21.3333C5.47761 21.0264 3.1599 20.2327 2.66669 18.6667" stroke="#3F3F46" stroke-width="2" stroke-linecap="round"/>
<path d="M8.00002 28C5.47761 27.693 3.1599 26.8993 2.66669 25.3333V5.33331" stroke="#3F3F46" stroke-width="2" stroke-linecap="round"/>
<path d="M20 7.99998V5.33331" stroke="#3F3F46" stroke-width="2" stroke-linecap="round"/>
</svg>
