<svg width="24" height="25" viewBox="0 0 24 25" fill="none" xmlns="http://www.w3.org/2000/svg">
<path d="M2.5 12.5C2.5 8.02166 2.5 5.78249 3.89124 4.39124C5.28249 3 7.52166 3 12 3C16.4783 3 18.7175 3 20.1088 4.39124C21.5 5.78249 21.5 8.02166 21.5 12.5C21.5 16.9783 21.5 19.2175 20.1088 20.6088C18.7175 22 16.4783 22 12 22C7.52166 22 5.28249 22 3.89124 20.6088C2.5 19.2175 2.5 16.9783 2.5 12.5Z" stroke="#3F3F46" stroke-width="1.5" stroke-linejoin="round"/>
<path d="M2.5 15H3.03875C3.51106 15 3.74721 15 3.95256 14.9013C4.15791 14.8026 4.30544 14.6182 4.60049 14.2494L6 12.5L7.5 15L9 11.5L11.5 16.5L15 9.5L17 13L18.5 11.5L19.9453 13.668C20.1973 14.046 20.3233 14.235 20.5074 14.3494C20.544 14.3721 20.582 14.3925 20.6212 14.4103C20.8185 14.5 21.0457 14.5 21.5 14.5" stroke="#3F3F46" stroke-width="1.5" stroke-linejoin="round"/>
<path d="M15 3V6M15 22V15" stroke="#3F3F46" stroke-width="1.5" stroke-linecap="round" stroke-linejoin="round"/>
<path d="M15 10.5C15.5523 10.5 16 10.0523 16 9.5C16 8.94772 15.5523 8.5 15 8.5C14.4477 8.5 14 8.94772 14 9.5C14 10.0523 14.4477 10.5 15 10.5Z" stroke="#3F3F46" stroke-width="1.5" stroke-linejoin="round"/>
</svg>
