<svg width="15" height="20" viewBox="0 0 15 20" fill="none" xmlns="http://www.w3.org/2000/svg">
<path d="M7.91721 14.1803V15.2471H6.85042V14.1803H2.58326C2.43391 14.1803 2.30767 14.1287 2.20455 14.0256C2.10143 13.9225 2.04987 13.7962 2.04987 13.6469V5.11257C2.04987 4.96321 2.10143 4.83698 2.20455 4.73386C2.30767 4.63073 2.43391 4.57917 2.58326 4.57917H5.78363C6.09656 4.57917 6.3917 4.64318 6.66907 4.77119C6.94643 4.89921 7.18468 5.07701 7.38382 5.30459C7.58295 5.07701 7.8212 4.89921 8.09856 4.77119C8.37593 4.64318 8.67108 4.57917 8.984 4.57917H12.1844C12.3337 4.57917 12.46 4.63073 12.5631 4.73386C12.6662 4.83698 12.7178 4.96321 12.7178 5.11257V13.6469C12.7178 13.7962 12.6662 13.9225 12.5631 14.0256C12.46 14.1287 12.3337 14.1803 12.1844 14.1803H7.91721ZM11.651 13.1135V5.64596H8.984C8.79198 5.64596 8.61418 5.69397 8.45061 5.78998C8.28703 5.88599 8.15724 6.01578 8.06123 6.17936C7.96522 6.34293 7.91721 6.52073 7.91721 6.71275V13.1135H11.651ZM6.85042 13.1135V6.71275C6.85042 6.52073 6.80241 6.34293 6.7064 6.17936C6.61039 6.01578 6.4806 5.88599 6.31703 5.78998C6.15345 5.69397 5.97565 5.64596 5.78363 5.64596H3.11666V13.1135H6.85042Z" fill="#3F3F46"/>
</svg>
