<svg width="82" height="58" viewBox="0 0 82 58" fill="none" xmlns="http://www.w3.org/2000/svg">
<path d="M39.8782 4.80335C37.1825 6.2017 31.2352 7.65059 28.2026 7.66744H27.377L27.4781 11.2391C27.7645 21.0613 29.6178 26.7389 33.9814 31.1025C35.6157 32.7198 37.2331 33.8823 39.5244 35.028L41.0912 35.803L42.6075 35.0617C47.4261 32.6693 50.644 29.2155 52.5141 24.4814C53.9125 20.9265 54.7212 15.5858 54.7212 9.80709V7.66744H53.963C50.9978 7.66744 45.5896 6.37017 42.2706 4.87074C41.5967 4.55063 40.9901 4.29792 40.9228 4.29792C40.8722 4.31477 40.4005 4.53378 39.8782 4.80335ZM47.4766 10.7C47.4766 11.7614 47.4429 11.8793 47.1396 11.8793C46.8701 11.8793 46.8027 11.7614 46.8027 11.3065C46.8027 10.3968 46.4657 10.1946 44.9831 10.1777C43.0793 10.144 42.7086 10.1946 42.3885 10.481C42.119 10.7337 42.0853 11.1717 42.0853 15.0299V19.2923H43.6858C44.5619 19.2923 45.2864 19.3597 45.2864 19.4439C45.2864 20.0504 45.0842 20.1347 43.5847 20.1347H42.0853V24.4982C42.0853 27.7835 42.1358 28.8954 42.3043 29.0302C42.4054 29.1145 42.8603 29.2492 43.3152 29.3166C43.8206 29.4009 44.107 29.5188 44.107 29.6704C44.107 29.8558 43.551 29.9063 41.0744 29.9063C38.5809 29.9063 38.0418 29.8558 38.0418 29.6704C38.0418 29.5188 38.3282 29.4009 38.8673 29.3166C39.339 29.2492 39.7939 29.1145 39.8782 28.9965C39.9961 28.8617 40.0635 25.5765 40.0804 19.8146C40.0972 9.72285 40.1646 10.1946 38.8673 10.1946C38.2271 10.1946 37.9407 9.99241 38.126 9.68916C38.1934 9.58807 39.9456 9.52068 42.8603 9.52068H47.4766V10.7ZM38.0418 13.9685C38.0418 14.1201 37.7722 14.2549 37.3341 14.3223C36.0874 14.5244 36.02 14.6592 36.02 17.1358V19.2923H37.6206C38.4966 19.2923 39.2211 19.3428 39.2211 19.3934C39.2211 19.4439 39.1369 19.6292 39.0526 19.8146C38.901 20.0841 38.682 20.1347 37.4521 20.1347H36.02V22.2743C36.02 23.4705 36.0874 24.5151 36.1548 24.6161C36.357 24.9362 36.9803 25.189 37.5195 25.189C37.8733 25.189 38.0418 25.2732 38.0418 25.4417C38.0418 25.6607 37.5869 25.6944 35.0091 25.6944C32.5493 25.6944 31.9765 25.6438 31.9765 25.4585C31.9765 25.3237 32.2461 25.189 32.6841 25.1384C33.9983 24.9699 33.9983 24.9531 33.9983 19.7303C33.9983 14.5076 33.9983 14.5076 32.7347 14.3054C32.2629 14.238 31.9765 14.1201 31.9765 13.9685C31.9765 13.7831 32.5325 13.7326 35.0091 13.7326C37.5026 13.7326 38.0418 13.7663 38.0418 13.9685ZM50.1723 13.9685C50.1723 14.1201 49.9027 14.2212 49.3804 14.2886C48.8918 14.3391 48.5043 14.4907 48.3695 14.6761C48.2011 14.9119 48.1505 16.0744 48.1505 19.7135C48.1505 23.3526 48.2011 24.5151 48.3695 24.7509C48.5043 24.9362 48.8918 25.0879 49.3804 25.1384C49.9027 25.2058 50.1723 25.3069 50.1723 25.4585C50.1723 25.6438 49.5994 25.6944 47.1396 25.6944C44.5619 25.6944 44.107 25.6607 44.107 25.4417C44.107 25.2564 44.2923 25.189 44.7809 25.189C45.2358 25.189 45.5728 25.071 45.7918 24.852C46.1119 24.5319 46.1288 24.296 46.1288 19.6461C46.1288 14.1875 46.1793 14.4233 44.8652 14.2717C44.3766 14.2212 44.107 14.1201 44.107 13.9685C44.107 13.7831 44.6798 13.7326 47.1396 13.7326C49.5994 13.7326 50.1723 13.7831 50.1723 13.9685Z" fill="#C41A1F"/>
<path d="M24.058 18.8711C23.9063 19.6124 23.9063 20.0504 24.0917 20.9602L24.3275 22.1058L23.8895 21.87C23.6536 21.752 23.384 21.651 23.2661 21.651C23.165 21.651 22.9628 21.4993 22.8281 21.2972C22.5248 20.876 22.3058 21.1455 22.5248 21.6847C22.6259 21.8868 23.0302 22.5944 23.4514 23.2515C24.1085 24.296 24.3107 24.4645 25.0857 24.7678C25.8438 25.0542 26.046 25.2395 26.4504 25.9471L26.9221 26.7895L26.2987 26.0819C25.7596 25.4922 25.49 25.3406 24.7487 25.189C23.8895 25.0373 23.4514 24.8183 23.1819 24.4308C22.9123 24.0602 22.8449 24.5656 23.0976 25.1047C23.4851 25.9134 24.5129 26.6042 26.0797 27.1264C27.2085 27.4971 27.4949 27.6824 27.9667 28.2721L28.5058 28.9797L27.8824 28.4069C27.377 27.9351 27.0569 27.7835 26.046 27.615C25.3721 27.4971 24.6308 27.3455 24.3949 27.2781C23.9737 27.1601 23.9737 27.1601 24.2938 27.5139C24.4623 27.7161 24.7487 27.9183 24.9172 27.9688C25.1025 28.0362 25.4732 28.4237 25.7596 28.828L26.2819 29.5862L27.4107 29.4683C28.5227 29.3672 28.927 29.4346 30.4433 29.9905C30.8477 30.1422 31.2183 30.2095 31.2689 30.159C31.3194 30.1085 30.9151 29.6704 30.3928 29.165C29.8537 28.6596 29.4325 28.1878 29.483 28.1204C29.5167 28.0362 29.6515 27.7666 29.7694 27.5139C29.9716 27.1096 29.9547 26.9917 29.5504 26.3009C29.2977 25.8629 29.1123 25.29 29.1123 24.9362C29.1123 24.1781 28.8091 24.2118 28.4047 25.0373C28.0341 25.7449 28.0172 26.6884 28.3542 27.4971C28.708 28.3226 28.6743 28.3732 28.2026 27.7329C27.9667 27.4297 27.7477 26.8063 27.6803 26.3346C27.5792 25.5933 27.6297 25.3743 28.0846 24.4814C28.6911 23.3526 28.6743 23.2178 27.8319 21.9711C27.4612 21.4151 27.2591 20.9097 27.2591 20.539C27.2591 19.6629 26.9727 19.8483 26.6694 20.9265C26.383 21.9205 26.383 24.3971 26.6694 25.1047C26.7368 25.29 26.4504 24.9194 25.9955 24.2792C25.052 22.9145 24.9004 22.1901 25.3216 21.0781L25.608 20.32L25.052 19.1407C24.7319 18.4836 24.4286 17.9613 24.3612 17.9445C24.2938 17.9445 24.1591 18.3657 24.058 18.8711Z" fill="#9D6100"/>
<path d="M57.0968 19.1407L56.5408 20.32L56.8272 21.0781C57.2484 22.1901 57.0968 22.9145 56.1533 24.2792C55.6984 24.9194 55.412 25.29 55.4794 25.1047C55.7658 24.3971 55.7658 21.9205 55.4794 20.9265C55.1761 19.8483 54.8897 19.6629 54.8897 20.539C54.8897 20.9097 54.6875 21.4151 54.3169 21.9711C53.4745 23.2178 53.4576 23.3526 54.0641 24.4814C54.519 25.3743 54.5696 25.5933 54.4685 26.3346C54.4011 26.8063 54.1821 27.4297 53.9462 27.7329C53.4745 28.3732 53.4408 28.3226 53.7946 27.4971C54.1315 26.6884 54.1147 25.7449 53.744 25.0373C53.3397 24.2118 53.0364 24.1781 53.0364 24.9362C53.0364 25.29 52.8511 25.8629 52.5984 26.3009C52.194 26.9917 52.1772 27.1096 52.3793 27.5139C52.4973 27.7666 52.6321 28.0362 52.6658 28.1204C52.7163 28.1878 52.2951 28.6596 51.756 29.165C51.2337 29.6704 50.8293 30.1085 50.8799 30.159C50.9304 30.2095 51.3011 30.1422 51.7054 29.9905C53.2217 29.4346 53.6261 29.3672 54.7381 29.4683L55.8669 29.5862L56.3892 28.828C56.6756 28.4237 57.0462 28.0362 57.2316 27.9688C57.4 27.9183 57.6864 27.7161 57.8549 27.5139C58.175 27.1601 58.175 27.1601 57.7538 27.2781C57.518 27.3455 56.7767 27.4971 56.1027 27.615C55.0919 27.7835 54.7718 27.9351 54.2663 28.4069L53.6429 28.9797L54.1821 28.2721C54.6538 27.6824 54.9402 27.4971 56.069 27.1264C57.6359 26.6042 58.6636 25.9134 59.0511 25.1047C59.3038 24.5656 59.2365 24.0602 58.9669 24.4308C58.6973 24.8183 58.2593 25.0373 57.4 25.189C56.6587 25.3406 56.3892 25.4922 55.85 26.0819L55.2266 26.7895L55.6984 25.9471C56.1027 25.2395 56.3049 25.0542 57.0631 24.7678C57.8381 24.4645 58.0403 24.296 58.6973 23.2515C59.1185 22.5944 59.5229 21.8868 59.624 21.6847C59.843 21.1455 59.624 20.876 59.3207 21.2972C59.1859 21.4993 58.9837 21.651 58.8826 21.651C58.7647 21.651 58.4951 21.752 58.2593 21.87L57.8212 22.1058L58.0571 20.9602C58.2424 20.0504 58.2424 19.6124 58.0908 18.8711C57.9897 18.3657 57.8549 17.9445 57.7875 17.9445C57.7201 17.9613 57.4169 18.4836 57.0968 19.1407Z" fill="#9D6100"/>
<path d="M27.1748 29.8894C26.5178 30.0579 25.9112 30.378 25.9112 30.5802C25.9112 30.6644 26.2314 30.8161 26.6357 30.9172C27.0232 31.0182 27.4612 31.1362 27.596 31.1867C27.7308 31.2373 28.7248 31.3383 29.8031 31.4057C31.4711 31.5237 31.9091 31.6248 32.8357 32.0628C34.0151 32.6356 35.2955 33.5791 34.5037 33.2927C34.2678 33.2084 33.7455 32.9894 33.3243 32.7872C32.9031 32.6019 32.2461 32.4334 31.8586 32.4334C30.8814 32.4334 28.6069 32.7872 28.6069 32.9389C28.6069 33.1579 29.7694 33.6296 30.6792 33.7812C31.2183 33.8655 32.0607 33.8486 32.8526 33.7307C34.0488 33.5622 34.2173 33.5791 34.8743 33.8992C35.2787 34.0845 35.9358 34.5225 36.3233 34.8595C37.3173 35.685 37.4858 35.6176 36.8455 34.6742C35.6662 32.9726 34.3857 31.9954 32.5325 31.3889C31.8923 31.1867 31.033 30.7992 30.6118 30.5297C29.4493 29.8221 28.3542 29.603 27.1748 29.8894Z" fill="#9D6100"/>
<path d="M52.9016 29.8894C52.5984 29.9737 51.9918 30.2601 51.5538 30.5297C51.1157 30.7992 50.2565 31.1867 49.6163 31.3889C47.763 31.9954 46.4826 32.9726 45.3032 34.6742C44.663 35.6176 44.8315 35.685 45.8255 34.8595C46.213 34.5225 46.8701 34.0845 47.2744 33.8992C47.9315 33.5791 48.1 33.5622 49.2962 33.7307C50.088 33.8486 50.9304 33.8655 51.4696 33.7812C52.3793 33.6296 53.5418 33.1579 53.5418 32.9389C53.5418 32.7872 51.2674 32.4334 50.2902 32.4334C49.9027 32.4334 49.2456 32.6019 48.8244 32.7872C48.4032 32.9894 47.8809 33.2084 47.6451 33.2927C46.8532 33.5791 48.1337 32.6356 49.313 32.0628C50.2397 31.6248 50.6777 31.5237 52.3456 31.4057C53.4239 31.3383 54.4179 31.2373 54.5527 31.1867C54.6875 31.1362 55.1256 31.0182 55.5299 30.9172C55.9174 30.8161 56.2375 30.6644 56.2375 30.5802C56.2375 30.0748 54.0136 29.6199 52.9016 29.8894Z" fill="#9D6100"/>
<path d="M2.49261 43.8898V48.9441H3.75621H5.0198V46.8382V44.7322H6.78884H8.55787V46.8382V48.9441H9.82146H11.0851V43.8898V38.8355H9.82146H8.55787V40.6888V42.542H6.78884H5.0198V40.6888V38.8355H3.75621H2.49261V43.8898Z" fill="#9D6100"/>
<path d="M37.9238 38.9535C36.795 39.0546 36.02 40.2507 36.02 41.9018C36.02 42.4746 35.9694 42.542 35.5988 42.542C35.1944 42.542 35.1776 42.5926 35.1776 43.4686C35.1776 44.3447 35.1944 44.3952 35.5988 44.3952H36.02V46.6697V48.9441H37.1993H38.3787V46.6697V44.3952H39.0526H39.7265V43.4686V42.542H39.0526H38.3787V41.7333C38.3787 40.773 38.8673 39.8969 39.4738 39.7453C39.7771 39.6779 39.895 39.5263 39.895 39.2399C39.895 38.8018 39.7771 38.785 37.9238 38.9535Z" fill="#9D6100"/>
<path d="M28.5901 39.4926C27.7645 40.1665 28.2868 41.6996 29.3651 41.6996C30.0053 41.6996 30.6287 41.0763 30.6287 40.4192C30.6287 39.3241 29.4662 38.785 28.5901 39.4926Z" fill="#9D6100"/>
<path d="M32.1787 39.56C31.9765 39.779 31.808 40.1665 31.808 40.4192C31.808 40.992 32.4988 41.6996 33.0716 41.6996C33.3075 41.6996 33.695 41.5143 33.914 41.2784C34.1499 41.0594 34.3352 40.6719 34.3352 40.4361C34.3352 39.8464 33.6276 39.1725 33.0211 39.1725C32.7347 39.1725 32.3977 39.3241 32.1787 39.56Z" fill="#9D6100"/>
<path d="M40.2657 39.56C39.7434 40.1159 39.7771 40.9078 40.3331 41.3458C41.1755 42.0029 42.1526 41.6154 42.3548 40.5708C42.5738 39.442 41.0575 38.7176 40.2657 39.56Z" fill="#9D6100"/>
<path d="M14.3704 42.6262C13.1237 43.3002 12.6014 44.2436 12.6014 45.7936C12.6014 47.0909 13.09 48.1523 13.9492 48.7251C14.6231 49.1968 16.0384 49.2474 16.6112 48.843C16.9481 48.6072 16.9818 48.6072 16.9818 48.843C16.9818 49.1631 17.1503 49.1631 18.2454 48.8936L19.0878 48.6745L19.1384 45.642L19.1721 42.6262L18.1275 42.6094C17.5378 42.5926 16.5775 42.5252 15.971 42.4746C15.1286 42.3735 14.7579 42.4241 14.3704 42.6262ZM16.6617 44.2268C16.746 44.2268 16.8134 44.867 16.8134 45.6588C16.8134 47.0403 16.7965 47.1077 16.3922 47.293C15.5498 47.6805 14.6737 46.5517 14.9095 45.3724C15.0275 44.8164 15.9036 43.9909 16.2574 44.1257C16.3922 44.1931 16.5775 44.2268 16.6617 44.2268Z" fill="#9D6100"/>
<path d="M24.0074 42.6262C23.6536 42.7442 23.2156 42.98 23.0302 43.1485C22.727 43.4181 22.7101 43.4181 22.7101 42.9969C22.7101 42.5589 22.6933 42.542 21.615 42.542H20.5199V45.7431V48.9441H21.6993H22.8786V47.0066C22.8786 45.2882 22.9123 45.0355 23.2156 44.7322C23.4009 44.5469 23.6873 44.3952 23.8558 44.3952C24.4623 44.3952 24.5634 44.7322 24.5634 46.8718V48.9441H25.7428H26.9221V46.5854C26.9221 44.1088 26.7705 43.4012 26.1471 42.8621C25.6922 42.4746 24.7487 42.3735 24.0074 42.6262Z" fill="#9D6100"/>
<path d="M28.9102 42.4915L28.2868 42.5589L28.2363 46.3159L28.1857 50.0729L27.6466 50.949L27.0906 51.8251L27.8993 51.7071C29.9884 51.4039 30.0221 51.4039 30.2917 50.8816C30.4939 50.4941 30.5613 49.5001 30.595 46.3664L30.6624 42.3735L30.0895 42.4072C29.7863 42.4241 29.2471 42.4578 28.9102 42.4915Z" fill="#9D6100"/>
<path d="M32.6167 42.4915L31.9765 42.5589V45.7599V48.9441H33.0716H34.1667V45.6588V42.3735L33.7118 42.4072C33.4423 42.4241 32.9537 42.4578 32.6167 42.4915Z" fill="#9D6100"/>
<path d="M40.6195 42.4915L39.895 42.5589V45.7599V48.9441H41.0744H42.2537V45.6588V42.3735L41.7988 42.4072C41.5293 42.4241 41.007 42.4578 40.6195 42.4915Z" fill="#9D6100"/>
<path d="M47.0891 42.6262C46.7353 42.7442 46.2972 42.98 46.1119 43.1485C45.8086 43.4181 45.7918 43.4181 45.7918 42.9969C45.7918 42.5589 45.7749 42.542 44.6967 42.542H43.6016V45.7431V48.9441H44.7809H45.9603V47.0066C45.9603 45.2882 45.994 45.0355 46.2972 44.7322C46.4826 44.5469 46.769 44.3952 46.9374 44.3952C47.544 44.3952 47.6451 44.7322 47.6451 46.8718V48.9441H48.8244H50.0038V46.5854C50.0038 44.1088 49.8521 43.4012 49.2288 42.8621C48.7739 42.4746 47.8304 42.3735 47.0891 42.6262Z" fill="#9D6100"/>
<path d="M52.6489 42.7105C52.3119 42.8958 51.8234 43.3675 51.5538 43.755C51.1663 44.3616 51.0989 44.6143 51.0989 45.7262C51.0989 47.2088 51.4359 48.068 52.2446 48.6408C52.8342 49.062 54.3337 49.2474 54.856 48.961C55.1255 48.8093 55.294 48.8093 55.513 48.961C55.7489 49.0957 56.0353 49.0789 56.6587 48.8936L57.5011 48.6577L57.5516 45.642L57.5853 42.6262L56.5408 42.6094C55.9511 42.5926 54.9908 42.5252 54.3842 42.4746C53.4745 42.3904 53.188 42.4241 52.6489 42.7105ZM55.2266 45.6757C55.2266 46.8887 55.1761 47.1077 54.9065 47.2593C54.4179 47.5121 54.2495 47.4784 53.7946 47.0066C52.7837 46.0126 53.6598 43.8561 54.9234 44.1931C55.1761 44.2605 55.2266 44.4626 55.2266 45.6757Z" fill="#9D6100"/>
<path d="M62.6566 42.542C62.3533 42.6263 61.8816 42.8453 61.612 43.0306L61.1234 43.4012V42.9632C61.1234 42.5589 61.0897 42.542 60.1125 42.542H59.1017V45.7431V48.9441H60.1968H61.2919V47.1077C61.2919 45.5072 61.3424 45.2208 61.6457 44.8333C62.0837 44.2773 62.6229 44.311 62.9261 44.9007C63.0609 45.1534 63.1452 46.0126 63.1452 47.1246V48.9441H64.2403H65.3354V46.5012C65.3354 43.2665 65.1164 42.7442 63.7348 42.5083C63.4653 42.4578 62.9767 42.4746 62.6566 42.542Z" fill="#9D6100"/>
<path d="M68.2501 42.7947C67.711 43.0643 67.2224 43.4855 66.9191 43.9235C66.4979 44.53 66.4305 44.7659 66.4305 45.8441C66.4305 46.9392 66.4811 47.1246 66.9528 47.7142C67.9805 49.0115 69.699 49.4495 71.4343 48.843L72.2094 48.5903L72.3104 47.5626C72.3778 47.0066 72.3947 46.518 72.361 46.4675C72.3104 46.4338 71.9398 46.5686 71.5523 46.7708C70.5077 47.293 69.5979 47.2593 69.0925 46.6865C68.4017 45.8778 68.6544 44.8838 69.6485 44.4626C70.1539 44.2436 70.3224 44.2605 71.1816 44.5469C71.7208 44.7322 72.1757 44.867 72.1925 44.8501C72.2094 44.8333 72.243 44.3615 72.2767 43.8056L72.3273 42.7947L71.7376 42.5925C70.693 42.2387 69.2104 42.323 68.2501 42.7947Z" fill="#9D6100"/>
<path d="M75.1914 42.6768C72.6305 43.873 72.3947 47.5795 74.8039 48.7588C75.7137 49.1968 77.23 49.2305 78.342 48.843C79.117 48.5903 79.117 48.5735 79.2349 47.6637C79.3023 47.1414 79.3023 46.6865 79.2686 46.636C79.2181 46.6023 78.8474 46.7371 78.4431 46.9392C78.005 47.1583 77.3985 47.3267 76.9099 47.3267C76.2192 47.3436 76.0338 47.2762 75.68 46.8719C75.461 46.6191 75.2757 46.3327 75.2757 46.2316C75.2757 46.1474 76.1686 46.08 77.3817 46.08H79.4877L79.5887 45.642C79.8415 44.648 79.3866 43.536 78.4262 42.8116C77.7692 42.323 76.0844 42.2556 75.1914 42.6768ZM77.5333 44.4289C77.6849 44.6311 77.8029 44.867 77.8029 44.9344C77.8029 45.0186 77.2806 45.0692 76.6235 45.0692C75.3768 45.0692 75.2083 44.9344 75.7306 44.3616C76.1349 43.9067 77.1963 43.9572 77.5333 44.4289Z" fill="#9D6100"/>
</svg>
