<svg width="25" height="25" viewBox="0 0 25 25" fill="none" xmlns="http://www.w3.org/2000/svg">
<path d="M11.4311 7.30816C11.8111 6.62648 12.0011 6.28564 12.2852 6.28564C12.5692 6.28564 12.7592 6.62648 13.1392 7.30816L13.2375 7.48451C13.3455 7.67822 13.3995 7.77508 13.4837 7.83899C13.5679 7.90289 13.6727 7.92661 13.8824 7.97406L14.0733 8.01725C14.8112 8.18421 15.1802 8.26769 15.2679 8.54996C15.3557 8.83224 15.1042 9.12637 14.6011 9.71462L14.471 9.86681C14.328 10.034 14.2566 10.1176 14.2244 10.221C14.1922 10.3244 14.203 10.4359 14.2247 10.6589L14.2443 10.862C14.3204 11.6468 14.3584 12.0393 14.1286 12.2137C13.8988 12.3882 13.5534 12.2291 12.8625 11.911L12.6837 11.8287C12.4874 11.7383 12.3892 11.6931 12.2852 11.6931C12.1811 11.6931 12.0829 11.7383 11.8866 11.8287L11.7079 11.911C11.017 12.2291 10.6715 12.3882 10.4417 12.2137C10.2119 12.0393 10.2499 11.6468 10.326 10.862L10.3457 10.6589C10.3673 10.4359 10.3781 10.3244 10.3459 10.221C10.3138 10.1176 10.2423 10.034 10.0993 9.86681L9.96919 9.71462C9.46613 9.12637 9.2146 8.83224 9.30238 8.54996C9.39016 8.26769 9.75911 8.18421 10.497 8.01725L10.6879 7.97406C10.8976 7.92661 11.0025 7.90289 11.0866 7.83899C11.1708 7.77508 11.2248 7.67823 11.3328 7.48451L11.4311 7.30816Z" stroke="#3F3F46" stroke-width="1.5"/>
<path d="M19.2852 9.28564C19.2852 13.1516 16.1511 16.2856 12.2852 16.2856C8.41916 16.2856 5.28516 13.1516 5.28516 9.28564C5.28516 5.41965 8.41916 2.28564 12.2852 2.28564C16.1511 2.28564 19.2852 5.41965 19.2852 9.28564Z" stroke="#3F3F46" stroke-width="1.5"/>
<path d="M12.2852 16.3535L8.5137 20.2585C7.97358 20.8177 7.70353 21.0973 7.47482 21.1941C6.95367 21.4146 6.37558 21.2259 6.10143 20.7458C5.98113 20.5351 5.94364 20.1551 5.86866 19.3951C5.82633 18.966 5.80516 18.7514 5.74091 18.5717C5.59707 18.1694 5.29481 17.8565 4.90626 17.7075C4.7327 17.641 4.52548 17.6191 4.11105 17.5753C3.37702 17.4976 3.01001 17.4588 2.80654 17.3342C2.34287 17.0504 2.16063 16.4518 2.37358 15.9122C2.46704 15.6754 2.7371 15.3958 3.27721 14.8366L5.74091 12.2856" stroke="#3F3F46" stroke-width="1.5"/>
<path d="M12.2852 16.3535L16.0566 20.2585C16.5967 20.8177 16.8668 21.0973 17.0955 21.1941C17.6166 21.4146 18.1947 21.2259 18.4689 20.7458C18.5892 20.5351 18.6267 20.1551 18.7017 19.3951C18.744 18.966 18.7652 18.7514 18.8294 18.5717C18.9732 18.1694 19.2755 17.8565 19.6641 17.7075C19.8376 17.641 20.0448 17.6191 20.4593 17.5753C21.1933 17.4976 21.5603 17.4588 21.7638 17.3342C22.2274 17.0504 22.4097 16.4518 22.1967 15.9122C22.1033 15.6754 21.8332 15.3958 21.2931 14.8366L18.8294 12.2856" stroke="#3F3F46" stroke-width="1.5"/>
</svg>
