<svg width="36" height="36" viewBox="0 0 36 36" fill="none" xmlns="http://www.w3.org/2000/svg">
<path d="M33 17.35C33 25.2748 26.2833 31.7001 18 31.7001C17.0261 31.7014 16.0548 31.6113 15.0981 31.4318C14.4095 31.3023 14.0652 31.2376 13.8248 31.2744C13.5844 31.3111 13.2438 31.4922 12.5625 31.8546C10.6352 32.8796 8.38793 33.2415 6.22667 32.8395C7.04811 31.8291 7.60913 30.6168 7.85667 29.3172C8.00667 28.5222 7.635 27.75 7.07834 27.1847C4.55 24.6173 3 21.1576 3 17.35C3 9.42535 9.71667 3 18 3C26.2833 3 33 9.42535 33 17.35Z" stroke="#3F3F46" stroke-width="2.25" stroke-linejoin="round"/>
<path d="M17.9932 18H18.0068M23.9865 18H24M12 18H12.0135" stroke="#3F3F46" stroke-width="2.25" stroke-linecap="round" stroke-linejoin="round"/>
</svg>
