<svg width="32" height="32" viewBox="0 0 32 32" fill="none" xmlns="http://www.w3.org/2000/svg">
<path d="M2.66663 18.6667C2.66663 13.6384 2.66663 11.1242 4.22872 9.5621C5.79082 8 8.30498 8 13.3333 8H18.6666C23.6949 8 26.2091 8 27.7712 9.5621C29.3333 11.1242 29.3333 13.6384 29.3333 18.6667C29.3333 23.695 29.3333 26.2091 27.7712 27.7712C26.2091 29.3333 23.6949 29.3333 18.6666 29.3333H13.3333C8.30498 29.3333 5.79082 29.3333 4.22872 27.7712C2.66663 26.2091 2.66663 23.695 2.66663 18.6667Z" stroke="#2C364E" stroke-width="2"/>
<path d="M21.3333 8.00008C21.3333 5.48592 21.3333 4.22885 20.5522 3.4478C19.7712 2.66675 18.5141 2.66675 16 2.66675C13.4858 2.66675 12.2287 2.66675 11.4477 3.4478C10.6666 4.22885 10.6666 5.48592 10.6666 8.00008" stroke="#2C364E" stroke-width="2"/>
<path d="M16 23.111C17.4728 23.111 18.6667 22.1161 18.6667 20.8888C18.6667 19.6615 17.4728 18.6666 16 18.6666C14.5273 18.6666 13.3334 17.6717 13.3334 16.4444C13.3334 15.2171 14.5273 14.2221 16 14.2221M16 23.111C14.5273 23.111 13.3334 22.1161 13.3334 20.8888M16 23.111V23.9999M16 13.3333V14.2221M16 14.2221C17.4728 14.2221 18.6667 15.2171 18.6667 16.4444" stroke="#2C364E" stroke-width="2" stroke-linecap="round"/>
</svg>
