<svg width="25" height="24" viewBox="0 0 25 24" fill="none" xmlns="http://www.w3.org/2000/svg">
<path d="M15 10.5C15 11.8807 13.8807 13 12.5 13C11.1192 13 10 11.8807 10 10.5C10 9.11929 11.1192 8 12.5 8C13.8807 8 15 9.11929 15 10.5Z" stroke="#3F3F46" stroke-width="1.5" stroke-linecap="round" stroke-linejoin="round"/>
<path d="M22.5 10.5V5.42705C22.5 4.85889 22.1756 4.34452 21.6329 4.17632C20.6903 3.88421 18.9794 3.5 16.5 3.5C11.9209 3.5 10.6967 5.17747 4.37798 3.92361C3.42079 3.73366 2.5 4.44531 2.5 5.42116V15.4382C2.5 16.1265 2.97265 16.731 3.6448 16.8792C9.21199 18.1069 11.0572 17.1995 14 16.7859" stroke="#3F3F46" stroke-width="1.5" stroke-linecap="round" stroke-linejoin="round"/>
<path d="M2.5 7.5C4.45133 7.5 6.20483 5.90507 6.42901 4.25417M19.0005 4C19.0005 6.03964 20.7655 7.96899 22.5 7.96899M6.50049 16.9961C6.50049 14.787 4.70963 12.9961 2.50049 12.9961" stroke="#3F3F46" stroke-width="1.5" stroke-linecap="round" stroke-linejoin="round"/>
<path d="M16.5 15.5C16.5 14.9477 16.9477 14.5 17.5 14.5H22.5L21 12.5M22.5 17.5C22.5 18.0523 22.0523 18.5 21.5 18.5H16.5L18 20.5" stroke="#3F3F46" stroke-width="1.5" stroke-linecap="round" stroke-linejoin="round"/>
</svg>
