<svg width="25" height="25" viewBox="0 0 25 25" fill="none" xmlns="http://www.w3.org/2000/svg">
<circle cx="12.2852" cy="12.8569" r="10" stroke="#3F3F46" stroke-width="1.5"/>
<path d="M8.28516 10.3569C8.28516 9.89099 8.28516 9.65802 8.36128 9.47425C8.46277 9.22922 8.65744 9.03455 8.90247 8.93305C9.08624 8.85693 9.31921 8.85693 9.78516 8.85693C10.2511 8.85693 10.4841 8.85693 10.6678 8.93305C10.9129 9.03455 11.1075 9.22922 11.209 9.47425C11.2852 9.65802 11.2852 9.89099 11.2852 10.3569V15.3569C11.2852 15.8229 11.2852 16.0558 11.209 16.2396C11.1075 16.4846 10.9129 16.6793 10.6678 16.7808C10.4841 16.8569 10.2511 16.8569 9.78516 16.8569C9.31921 16.8569 9.08624 16.8569 8.90247 16.7808C8.65744 16.6793 8.46277 16.4846 8.36128 16.2396C8.28516 16.0558 8.28516 15.8229 8.28516 15.3569V10.3569Z" stroke="#3F3F46" stroke-width="1.5"/>
<path d="M13.2852 10.3569C13.2852 9.89099 13.2852 9.65802 13.3613 9.47425C13.4628 9.22922 13.6574 9.03455 13.9025 8.93305C14.0862 8.85693 14.3192 8.85693 14.7852 8.85693C15.2511 8.85693 15.4841 8.85693 15.6678 8.93305C15.9129 9.03455 16.1075 9.22922 16.209 9.47425C16.2852 9.65802 16.2852 9.89099 16.2852 10.3569V15.3569C16.2852 15.8229 16.2852 16.0558 16.209 16.2396C16.1075 16.4846 15.9129 16.6793 15.6678 16.7808C15.4841 16.8569 15.2511 16.8569 14.7852 16.8569C14.3192 16.8569 14.0862 16.8569 13.9025 16.7808C13.6574 16.6793 13.4628 16.4846 13.3613 16.2396C13.2852 16.0558 13.2852 15.8229 13.2852 15.3569V10.3569Z" stroke="#3F3F46" stroke-width="1.5"/>
</svg>
