<svg width="16" height="16" viewBox="0 0 16 16" fill="none" xmlns="http://www.w3.org/2000/svg">
<g clip-path="url(#clip0_101_13574)">
<path d="M9.57305 2.71908L10.191 2.10117C11.2148 1.07736 12.8747 1.07736 13.8985 2.10117C14.9223 3.12497 14.9223 4.78488 13.8985 5.80868L13.2806 6.4266M9.57305 2.71908C9.57305 2.71908 9.65029 4.03216 10.8089 5.19076C11.9675 6.34936 13.2806 6.4266 13.2806 6.4266M9.57305 2.71908L3.89222 8.39991C3.50745 8.78469 3.31506 8.97707 3.14961 9.1892C2.95443 9.43943 2.7871 9.71019 2.65057 9.99666C2.53483 10.2395 2.44879 10.4976 2.27671 11.0139L1.54755 13.2014M13.2806 6.4266L7.59974 12.1074C7.21497 12.4922 7.02258 12.6846 6.81045 12.85C6.56022 13.0452 6.28947 13.2126 6.00299 13.3491C5.76014 13.4648 5.50202 13.5509 4.98579 13.7229L2.79829 14.4521M2.79829 14.4521L2.26357 14.6303C2.00953 14.715 1.72945 14.6489 1.5401 14.4596C1.35074 14.2702 1.28463 13.9901 1.36931 13.7361L1.54755 13.2014M2.79829 14.4521L1.54755 13.2014" stroke="#3F3F46" stroke-width="1.5"/>
</g>
<defs>
<clipPath id="clip0_101_13574">
<rect width="16" height="16" fill="white"/>
</clipPath>
</defs>
</svg>
