<svg width="32" height="32" viewBox="0 0 32 32" fill="none" xmlns="http://www.w3.org/2000/svg">
<path d="M18.6667 5.33341C18.6667 6.80617 17.4728 8.00008 16 8.00008C14.5273 8.00008 13.3334 6.80617 13.3334 5.33341C13.3334 3.86066 14.5273 2.66675 16 2.66675C17.4728 2.66675 18.6667 3.86066 18.6667 5.33341Z" stroke="#2C364E" stroke-width="2"/>
<path d="M8.06369 14.4657L8.37991 13.517H8.37991L8.06369 14.4657ZM10.9641 15.4325L10.6478 16.3811L10.6478 16.3811L10.9641 15.4325ZM12.0224 17.675L11.089 17.316L12.0224 17.675ZM10.36 21.9972L11.2933 22.3562V22.3562L10.36 21.9972ZM23.9362 14.4657L23.62 13.517L23.9362 14.4657ZM21.0358 15.4325L21.3521 16.3811H21.3521L21.0358 15.4325ZM19.9775 17.675L20.9109 17.316L19.9775 17.675ZM21.6399 21.9972L20.7066 22.3562H20.7066L21.6399 21.9972ZM13.8989 23.6769L14.7671 24.173V24.173L13.8989 23.6769ZM16 20L16.8682 19.5038C16.6902 19.1923 16.3588 19 16 19C15.6411 19 15.3098 19.1923 15.1317 19.5038L16 20ZM22.862 10.5295L22.6525 9.55173V9.55173L22.862 10.5295ZM20.3319 11.0717L20.5415 12.0495V12.0495L20.3319 11.0717ZM11.668 11.0717L11.8775 10.0939V10.0939L11.668 11.0717ZM9.1379 10.5295L8.92837 11.5073L9.1379 10.5295ZM18.1011 23.6769L17.2328 24.173V24.173L18.1011 23.6769ZM20.0512 11.1313L19.8486 10.1521L19.8486 10.1521L20.0512 11.1313ZM11.9488 11.1313L11.7462 12.1106L11.7462 12.1106L11.9488 11.1313ZM20.3783 15.6891L20.9036 16.54L20.3783 15.6891ZM19.7576 17.0043L20.7484 16.8688L20.7484 16.8688L19.7576 17.0043ZM11.6216 15.6891L11.0964 16.54L11.0964 16.54L11.6216 15.6891ZM12.2423 17.0043L13.2331 17.1398V17.1398L12.2423 17.0043ZM8.06369 14.4657L7.74746 15.4143L10.6478 16.3811L10.9641 15.4325L11.2803 14.4838L8.37991 13.517L8.06369 14.4657ZM12.0224 17.675L11.089 17.316L9.42666 21.6382L10.36 21.9972L11.2933 22.3562L12.9557 18.034L12.0224 17.675ZM23.9362 14.4657L23.62 13.517L20.7196 14.4838L21.0358 15.4325L21.3521 16.3811L24.2525 15.4143L23.9362 14.4657ZM19.9775 17.675L19.0442 18.034L20.7066 22.3562L21.6399 21.9972L22.5733 21.6382L20.9109 17.316L19.9775 17.675ZM13.8989 23.6769L14.7671 24.173L16.8682 20.4961L16 20L15.1317 19.5038L13.0306 23.1808L13.8989 23.6769ZM22.862 10.5295L22.6525 9.55173L20.1224 10.0939L20.3319 11.0717L20.5415 12.0495L23.0716 11.5073L22.862 10.5295ZM11.668 11.0717L11.8775 10.0939L9.34743 9.55173L9.1379 10.5295L8.92837 11.5073L11.4585 12.0495L11.668 11.0717ZM16 20L15.1317 20.4961L17.2328 24.173L18.1011 23.6769L18.9693 23.1808L16.8682 19.5038L16 20ZM20.3319 11.0717L20.1224 10.0939C19.9804 10.1243 19.9141 10.1385 19.8486 10.1521L20.0512 11.1313L20.2537 12.1106C20.3277 12.0953 20.4021 12.0794 20.5415 12.0495L20.3319 11.0717ZM11.668 11.0717L11.4585 12.0495C11.5978 12.0794 11.6722 12.0953 11.7462 12.1106L11.9488 11.1313L12.1513 10.1521C12.0859 10.1385 12.0195 10.1243 11.8775 10.0939L11.668 11.0717ZM20.0512 11.1313L19.8486 10.1521C17.3097 10.6772 14.6902 10.6772 12.1513 10.1521L11.9488 11.1313L11.7462 12.1106C14.5523 12.6911 17.4476 12.6911 20.2537 12.1106L20.0512 11.1313ZM12.1934 24.6666V25.6666C13.2571 25.6666 14.2393 25.0966 14.7671 24.173L13.8989 23.6769L13.0306 23.1808C12.8589 23.4812 12.5394 23.6666 12.1934 23.6666V24.6666ZM21.6399 21.9972L20.7066 22.3562C20.9495 22.9878 20.4833 23.6666 19.8066 23.6666V24.6666V25.6666C21.8868 25.6666 23.32 23.5798 22.5733 21.6382L21.6399 21.9972ZM21.0358 15.4325L20.7196 14.4838C20.4237 14.5824 20.1087 14.6803 19.853 14.8381L20.3783 15.6891L20.9036 16.54C20.8918 16.5473 20.9017 16.5386 20.9788 16.5094C21.06 16.4787 21.1693 16.4421 21.3521 16.3811L21.0358 15.4325ZM19.9775 17.675L20.9109 17.316C20.8417 17.1362 20.8005 17.0285 20.7726 16.9464C20.7461 16.8683 20.7465 16.8551 20.7484 16.8688L19.7576 17.0043L18.7668 17.1398C18.8075 17.4375 18.9322 17.7429 19.0442 18.034L19.9775 17.675ZM20.3783 15.6891L19.853 14.8381C19.0676 15.323 18.6418 16.2252 18.7668 17.1398L19.7576 17.0043L20.7484 16.8688C20.7305 16.7382 20.7913 16.6093 20.9036 16.54L20.3783 15.6891ZM25.3333 12.5273H24.3333C24.3333 12.9764 24.046 13.375 23.62 13.517L23.9362 14.4657L24.2525 15.4143C25.4951 15.0001 26.3333 13.8372 26.3333 12.5273H25.3333ZM10.36 21.9972L9.42666 21.6382C8.67988 23.5798 10.1131 25.6666 12.1934 25.6666V24.6666V23.6666C11.5166 23.6666 11.0504 22.9878 11.2933 22.3562L10.36 21.9972ZM10.9641 15.4325L10.6478 16.3811C10.8306 16.4421 10.94 16.4787 11.0211 16.5094C11.0982 16.5386 11.1082 16.5473 11.0964 16.54L11.6216 15.6891L12.1469 14.8381C11.8912 14.6803 11.5762 14.5824 11.2803 14.4838L10.9641 15.4325ZM12.0224 17.675L12.9557 18.034C13.0677 17.7429 13.1924 17.4375 13.2331 17.1398L12.2423 17.0043L11.2515 16.8688C11.2534 16.8551 11.2538 16.8683 11.2273 16.9464C11.1994 17.0285 11.1582 17.1362 11.089 17.316L12.0224 17.675ZM11.6216 15.6891L11.0964 16.54C11.2086 16.6093 11.2694 16.7382 11.2515 16.8688L12.2423 17.0043L13.2331 17.1398C13.3581 16.2252 12.9323 15.323 12.1469 14.8381L11.6216 15.6891ZM6.66663 12.5273H5.66663C5.66663 13.8372 6.50481 15.0001 7.74746 15.4143L8.06369 14.4657L8.37991 13.517C7.95394 13.375 7.66663 12.9764 7.66663 12.5273H6.66663ZM6.66663 12.5273H7.66663C7.66663 11.8632 8.27898 11.3682 8.92837 11.5073L9.1379 10.5295L9.34743 9.55173C7.45302 9.14579 5.66663 10.5899 5.66663 12.5273H6.66663ZM18.1011 23.6769L17.2328 24.173C17.7606 25.0966 18.7428 25.6666 19.8066 25.6666V24.6666V23.6666C19.4605 23.6666 19.141 23.4812 18.9693 23.1808L18.1011 23.6769ZM25.3333 12.5273H26.3333C26.3333 10.5899 24.5469 9.14579 22.6525 9.55173L22.862 10.5295L23.0716 11.5073C23.7209 11.3682 24.3333 11.8632 24.3333 12.5273H25.3333Z" fill="#2C364E"/>
<path d="M25.9382 19.3333C28.0495 20.3948 29.3333 21.7965 29.3333 23.3333C29.3333 26.647 23.3638 29.3333 16 29.3333C8.63616 29.3333 2.66663 26.647 2.66663 23.3333C2.66663 21.7965 3.95042 20.3948 6.06171 19.3333" stroke="#2C364E" stroke-width="2" stroke-linecap="round"/>
</svg>
