<svg width="37" height="36" viewBox="0 0 37 36" fill="none" xmlns="http://www.w3.org/2000/svg">
<path d="M18.2539 24C9.61398 24 8.08341 15.3893 7.81227 8.5597C7.73684 6.65996 7.69913 5.71009 8.41271 4.83125C9.12629 3.9524 9.98033 3.80831 11.6884 3.52011C13.3745 3.23563 15.5786 3 18.2539 3C20.9292 3 23.1333 3.23563 24.8194 3.52011C26.5274 3.80831 27.3815 3.9524 28.0951 4.83125C28.8086 5.71009 28.7709 6.65996 28.6955 8.5597C28.4244 15.3893 26.8938 24 18.2539 24Z" stroke="#2C364E" stroke-width="2.25"/>
<path d="M28.75 7.5L30.1729 7.97431C31.658 8.46934 32.4006 8.71685 32.8253 9.30612C33.25 9.89539 33.25 10.6781 33.2499 12.2435L33.2499 12.3523C33.2499 13.6434 33.2499 14.289 32.9391 14.8171C32.6283 15.3453 32.064 15.6588 30.9353 16.2859L26.5 18.75" stroke="#2C364E" stroke-width="2.25"/>
<path d="M7.74991 7.5L6.32698 7.97431C4.84189 8.46934 4.09935 8.71685 3.67464 9.30612C3.24994 9.89539 3.24996 10.6781 3.25 12.2435L3.25 12.3523C3.25004 13.6434 3.25006 14.289 3.56084 14.8171C3.87162 15.3453 4.43594 15.6588 5.56457 16.2859L9.99991 18.75" stroke="#2C364E" stroke-width="2.25"/>
<path d="M18.25 25.5V28.5" stroke="#2C364E" stroke-width="2.25" stroke-linecap="round"/>
<path d="M23.5 33H13L13.5088 30.4558C13.6491 29.7547 14.2647 29.25 14.9797 29.25H21.5203C22.2353 29.25 22.8509 29.7547 22.9912 30.4558L23.5 33Z" stroke="#2C364E" stroke-width="2.25" stroke-linecap="round" stroke-linejoin="round"/>
<path d="M27.25 33H9.25" stroke="#2C364E" stroke-width="2.25" stroke-linecap="round"/>
</svg>
