<svg width="59" height="16" viewBox="0 0 59 16" fill="none" xmlns="http://www.w3.org/2000/svg">
<path d="M6.62077 11.1841L3.39297 12.9946L4.11534 9.3645L1.3996 6.85906L5.07545 6.42015L6.62077 3.06434L8.16609 6.42015L11.8419 6.85906L9.12621 9.3645L9.84857 12.9946L6.62077 11.1841Z" fill="#FBBF24"/>
<path d="M18.049 11.1841L14.8212 12.9946L15.5435 9.3645L12.8278 6.85906L16.5036 6.42015L18.049 3.06434L19.5943 6.42015L23.2701 6.85906L20.5544 9.3645L21.2768 12.9946L18.049 11.1841Z" fill="#FBBF24"/>
<path d="M29.4791 11.1841L26.2513 12.9946L26.9737 9.3645L24.2579 6.85906L27.9338 6.42015L29.4791 3.06434L31.0244 6.42015L34.7003 6.85906L31.9845 9.3645L32.7069 12.9946L29.4791 11.1841Z" fill="#FBBF24"/>
<path d="M40.9087 11.1841L37.6809 12.9946L38.4033 9.3645L35.6876 6.85906L39.3634 6.42015L40.9087 3.06434L42.4541 6.42015L46.1299 6.85906L43.4142 9.3645L44.1365 12.9946L40.9087 11.1841Z" fill="#FBBF24"/>
<path d="M52.3389 11.1841L49.1111 12.9946L49.8335 9.3645L47.1177 6.85906L50.7936 6.42015L52.3389 3.06434L53.8842 6.42015L57.5601 6.85906L54.8443 9.3645L55.5667 12.9946L52.3389 11.1841ZM52.3389 10.1417L54.2774 11.2299L53.8477 9.04446L55.4844 7.53571L53.2716 7.27054L52.3389 5.24973L51.4062 7.27054L49.1934 7.53571L50.8302 9.04446L50.4004 11.2299L52.3389 10.1417Z" fill="#FBBF24"/>
</svg>
