<svg width="37" height="36" viewBox="0 0 37 36" fill="none" xmlns="http://www.w3.org/2000/svg">
<path d="M33.8359 33H18.8359C11.7649 33 8.22934 33 6.03264 30.8033C3.83594 28.6066 3.83594 25.0711 3.83594 18V3" stroke="#2C364E" stroke-width="2.25" stroke-linecap="round"/>
<path d="M29.3362 10.5L24.6592 16.3896C23.9427 17.2918 23.5845 17.7428 23.1733 17.9627C22.541 18.3007 21.7854 18.3171 21.139 18.0069C20.7186 17.8052 20.3411 17.3701 19.5862 16.5C18.8312 15.6298 18.4537 15.1948 18.0333 14.993C17.3869 14.6828 16.6314 14.6993 15.9991 15.0373C15.5879 15.2571 15.2296 15.7082 14.5132 16.6103L9.83594 22.5" stroke="#2C364E" stroke-width="2.25" stroke-linecap="round"/>
</svg>
