<svg width="24" height="24" viewBox="0 0 24 24" fill="none" xmlns="http://www.w3.org/2000/svg">
<path d="M22.2887 7.98883L7.98923 22.2883C7.8862 22.3926 7.77078 22.4838 7.64553 22.56C7.2651 22.8014 6.81377 22.9061 6.36591 22.8567C5.91804 22.8073 5.50036 22.6068 5.18168 22.2883L1.71391 18.8196C1.34182 18.4472 1.13281 17.9423 1.13281 17.4159C1.13281 16.8894 1.34182 16.3845 1.71391 16.0121L16.0134 1.71306C16.3858 1.34097 16.8907 1.13196 17.4172 1.13196C17.9436 1.13196 18.4485 1.34097 18.8209 1.71306L22.2892 5.18128C22.6612 5.5537 22.8703 6.05861 22.8703 6.58506C22.8703 7.1115 22.6612 7.61641 22.2892 7.98883H22.2887Z" fill="#F7E839"/>
<path opacity="0.6" d="M4.18296 16.1099C4.15344 16.0804 4.13002 16.0454 4.11405 16.0069C4.09807 15.9683 4.08984 15.927 4.08984 15.8853C4.08984 15.8436 4.09807 15.8023 4.11405 15.7637C4.13002 15.7252 4.15344 15.6902 4.18296 15.6607L8.01753 11.8257C8.07716 11.7661 8.15801 11.7327 8.24229 11.7327C8.32658 11.7327 8.40739 11.7663 8.46696 11.8259C8.52653 11.8855 8.55997 11.9664 8.55993 12.0507C8.55989 12.135 8.52636 12.2158 8.46674 12.2753L4.63217 16.1099C4.60269 16.1394 4.56768 16.1628 4.52914 16.1788C4.4906 16.1948 4.44929 16.203 4.40757 16.203C4.36585 16.203 4.32453 16.1948 4.286 16.1788C4.24746 16.1628 4.21244 16.1394 4.18296 16.1099ZM9.17859 11.1138C9.14907 11.0843 9.12565 11.0493 9.10967 11.0108C9.09369 10.9723 9.08547 10.9309 9.08547 10.8892C9.08547 10.8475 9.09369 10.8062 9.10967 10.7677C9.12565 10.7291 9.14907 10.6941 9.17859 10.6646L9.63323 10.21C9.66272 10.1805 9.69774 10.1571 9.73627 10.1411C9.77481 10.1252 9.81612 10.1169 9.85783 10.1169C9.89954 10.1169 9.94085 10.1252 9.97938 10.1411C10.0179 10.1571 10.0529 10.1805 10.0824 10.21C10.1119 10.2395 10.1353 10.2745 10.1513 10.313C10.1673 10.3516 10.1755 10.3929 10.1755 10.4346C10.1755 10.4763 10.1673 10.5176 10.1513 10.5561C10.1353 10.5947 10.1119 10.6297 10.0824 10.6592L9.62779 11.1138C9.59831 11.1433 9.5633 11.1668 9.52476 11.1827C9.48622 11.1987 9.44491 11.2069 9.40319 11.2069C9.36147 11.2069 9.32016 11.1987 9.28162 11.1827C9.24308 11.1668 9.20807 11.1433 9.17859 11.1138Z" fill="white"/>
<path d="M22.2886 7.98887L7.98915 22.2883C7.88612 22.3926 7.77069 22.4839 7.64545 22.56C7.26502 22.8015 6.81369 22.9061 6.36582 22.8567C5.91796 22.8074 5.50028 22.6069 5.1816 22.2883L3.96484 21.0702C4.28349 21.3887 4.70109 21.5891 5.14885 21.6384C5.59662 21.6878 6.04785 21.5833 6.42824 21.3419C6.55364 21.2658 6.66922 21.1745 6.77239 21.0702L21.071 6.77166C21.443 6.39924 21.6521 5.89433 21.6521 5.36788C21.6521 4.84144 21.443 4.33653 21.071 3.96411L22.2886 5.18132C22.6607 5.55374 22.8697 6.05865 22.8697 6.58509C22.8697 7.11154 22.6607 7.61645 22.2886 7.98887Z" fill="#EDD318"/>
<path d="M17.9797 4.08816C17.895 4.17301 17.7945 4.24033 17.6838 4.28626C17.5731 4.33219 17.4544 4.35583 17.3346 4.35583C17.2148 4.35583 17.0961 4.33219 16.9854 4.28626C16.8747 4.24033 16.7742 4.17301 16.6895 4.08816C16.6047 4.00353 16.5374 3.90299 16.4914 3.7923C16.4455 3.68161 16.4219 3.56295 16.4219 3.44311C16.4219 3.32326 16.4455 3.2046 16.4914 3.09391C16.5374 2.98322 16.6047 2.88268 16.6895 2.79805C16.7742 2.71313 16.8748 2.64576 16.9855 2.59979C17.0962 2.55382 17.2149 2.53015 17.3348 2.53015C17.4547 2.53015 17.5734 2.55382 17.6842 2.59979C17.7949 2.64576 17.8955 2.71313 17.9801 2.79805C18.3365 3.15488 18.336 3.73088 17.9797 4.08816Z" fill="white"/>
<path d="M17.9787 2.79622C18.0683 2.88588 18.1358 2.99139 18.1838 3.10369C18.0099 2.94542 17.7817 2.86037 17.5467 2.86628C17.3116 2.87218 17.0879 2.96859 16.9222 3.13539C16.7959 3.26142 16.7094 3.4218 16.6735 3.59659C16.6376 3.77138 16.6539 3.95287 16.7203 4.11849L16.6886 4.08679C16.604 4.00227 16.5369 3.90192 16.4912 3.79147C16.4454 3.68102 16.4219 3.56264 16.4219 3.44309C16.4219 3.32354 16.4454 3.20516 16.4912 3.09471C16.5369 2.98427 16.604 2.88392 16.6886 2.79939C16.773 2.71427 16.8734 2.64665 16.984 2.6004C17.0946 2.55416 17.2133 2.5302 17.3332 2.52991C17.4531 2.52962 17.5719 2.55299 17.6827 2.59869C17.7935 2.64439 17.8938 2.71152 17.9787 2.79622Z" fill="#D0D0F7"/>
<path d="M22.4943 7.78183L22.0319 8.24463L20.3868 6.5995C20.3254 6.53819 20.2909 6.45501 20.2909 6.36826C20.2909 6.28151 20.3253 6.1983 20.3866 6.13693C20.4479 6.07556 20.5311 6.04106 20.6178 6.04102C20.7046 6.04097 20.7878 6.07539 20.8492 6.1367L22.4943 7.78183ZM8.24463 22.0319L7.78184 22.4943L6.1367 20.8492C6.07539 20.7878 6.04097 20.7046 6.04102 20.6178C6.04106 20.5311 6.07556 20.4479 6.13693 20.3866C6.1983 20.3253 6.28151 20.2909 6.36826 20.2909C6.45501 20.2909 6.53819 20.3254 6.5995 20.3868L8.24463 22.0319ZM21.0697 9.20689L20.6069 9.66968L19.3996 8.46244C19.3693 8.43205 19.3452 8.39598 19.3287 8.35627C19.3123 8.31657 19.3038 8.27402 19.3038 8.23104C19.3038 8.18807 19.3123 8.14551 19.3287 8.10581C19.3452 8.06611 19.3693 8.03003 19.3996 7.99965C19.43 7.96926 19.4661 7.94515 19.5058 7.92871C19.5455 7.91226 19.5881 7.9038 19.631 7.9038C19.674 7.9038 19.7166 7.91226 19.7563 7.92871C19.796 7.94515 19.8321 7.96926 19.8624 7.99965L21.0697 9.20689ZM19.6442 10.6324L19.1814 11.0952L17.5363 9.45006C17.4749 9.38869 17.4404 9.30546 17.4404 9.21867C17.4404 9.13188 17.4749 9.04864 17.5363 8.98727C17.5976 8.9259 17.6809 8.89142 17.7676 8.89142C17.8544 8.89142 17.9377 8.9259 17.999 8.98727L19.6442 10.6324ZM18.2191 12.0575L17.7563 12.5203L16.5491 11.313C16.5187 11.2826 16.4946 11.2465 16.4781 11.2068C16.4617 11.1671 16.4532 11.1246 16.4532 11.0816C16.4532 11.0386 16.4617 10.9961 16.4781 10.9564C16.4946 10.9167 16.5187 10.8806 16.5491 10.8502C16.5795 10.8198 16.6155 10.7957 16.6552 10.7793C16.695 10.7628 16.7375 10.7544 16.7805 10.7544C16.8235 10.7544 16.866 10.7628 16.9057 10.7793C16.9454 10.7957 16.9815 10.8198 17.0119 10.8502L18.2191 12.0575ZM16.7941 13.4825L16.3313 13.9449L14.6861 12.2997C14.6558 12.2693 14.6317 12.2333 14.6153 12.1936C14.5989 12.1539 14.5904 12.1113 14.5905 12.0684C14.5905 12.0254 14.599 11.9829 14.6154 11.9432C14.6319 11.9036 14.656 11.8675 14.6864 11.8372C14.7168 11.8068 14.7528 11.7827 14.7925 11.7663C14.8322 11.7499 14.8747 11.7414 14.9177 11.7415C14.9606 11.7415 15.0032 11.75 15.0429 11.7664C15.0825 11.7829 15.1186 11.807 15.1489 11.8374L16.7941 13.4825ZM15.369 14.9071L14.9062 15.3699L13.6994 14.1627C13.6381 14.1014 13.6037 14.0182 13.6037 13.9315C13.6037 13.8448 13.6381 13.7616 13.6994 13.7003C13.7607 13.639 13.8439 13.6046 13.9306 13.6046C14.0173 13.6046 14.1005 13.639 14.1618 13.7003L15.369 14.9071ZM13.9439 16.3322L13.4816 16.795L11.8365 15.1498C11.8061 15.1195 11.782 15.0834 11.7655 15.0438C11.7491 15.0041 11.7406 14.9616 11.7406 14.9186C11.7405 14.8756 11.749 14.8331 11.7654 14.7934C11.7818 14.7537 11.8059 14.7177 11.8363 14.6873C11.8666 14.6569 11.9027 14.6328 11.9423 14.6163C11.982 14.5999 12.0245 14.5914 12.0675 14.5914C12.1104 14.5913 12.153 14.5998 12.1927 14.6162C12.2324 14.6326 12.2684 14.6567 12.2988 14.687L13.9439 16.3322ZM12.5193 17.7572L12.0566 18.22L10.8493 17.0128C10.8189 16.9824 10.7948 16.9463 10.7784 16.9066C10.7619 16.8669 10.7535 16.8244 10.7535 16.7814C10.7535 16.7384 10.7619 16.6959 10.7784 16.6562C10.7948 16.6164 10.8189 16.5804 10.8493 16.55C10.8797 16.5196 10.9158 16.4955 10.9555 16.479C10.9952 16.4626 11.0377 16.4541 11.0807 16.4541C11.1237 16.4541 11.1662 16.4626 11.2059 16.479C11.2456 16.4955 11.2817 16.5196 11.3121 16.55L12.5193 17.7572ZM11.0929 19.1836L10.6324 19.6437L8.98727 17.9986C8.95454 17.9689 8.92818 17.9329 8.90978 17.8928C8.89138 17.8526 8.88134 17.8092 8.88025 17.765C8.87916 17.7209 8.88706 17.6769 8.90346 17.6359C8.91985 17.5949 8.94441 17.5577 8.97564 17.5264C9.00688 17.4952 9.04413 17.4706 9.08514 17.4542C9.12615 17.4378 9.17006 17.43 9.21421 17.431C9.25837 17.4321 9.30184 17.4422 9.34199 17.4606C9.38214 17.479 9.41814 17.5053 9.4478 17.5381L11.0929 19.1836ZM9.66923 20.6073L9.20644 21.0701L7.99919 19.8629C7.96881 19.8325 7.9447 19.7964 7.92826 19.7567C7.91181 19.717 7.90335 19.6745 7.90335 19.6315C7.90335 19.5885 7.91181 19.546 7.92826 19.5063C7.9447 19.4666 7.96881 19.4305 7.99919 19.4001C8.02958 19.3697 8.06566 19.3456 8.10536 19.3292C8.14506 19.3127 8.18762 19.3043 8.23059 19.3043C8.27356 19.3043 8.31612 19.3127 8.35582 19.3292C8.39552 19.3456 8.4316 19.3697 8.46199 19.4001L9.66923 20.6073Z" fill="#474646"/>
</svg>
