<svg width="25" height="25" viewBox="0 0 25 25" fill="none" xmlns="http://www.w3.org/2000/svg">
<path d="M10.0684 3.78481C11.4894 3.11861 13.0818 3.11861 14.5028 3.78481L21.194 6.92179C22.6495 7.60415 22.6495 9.96621 21.194 10.6486L14.5029 13.7855C13.0819 14.4517 11.4895 14.4517 10.0684 13.7855L3.37724 10.6485C1.92177 9.96616 1.92178 7.60411 3.37725 6.92175L10.0684 3.78481Z" stroke="#3F3F46" stroke-width="1.5"/>
<path d="M2.28564 8.78516V14.2852" stroke="#3F3F46" stroke-width="1.5" stroke-linecap="round"/>
<path d="M19.2856 11.7852V16.9106C19.2856 17.9186 18.7821 18.8624 17.9003 19.3507C16.4319 20.1639 14.0816 21.2852 12.2856 21.2852C10.4896 21.2852 8.13935 20.1639 6.67098 19.3507C5.78915 18.8624 5.28564 17.9186 5.28564 16.9106V11.7852" stroke="#3F3F46" stroke-width="1.5" stroke-linecap="round"/>
</svg>
