<svg width="12" height="11" viewBox="0 0 12 11" fill="none" xmlns="http://www.w3.org/2000/svg">
<path d="M5.72244 0.67675C5.82424 0.428536 6.17576 0.428536 6.27756 0.67675L7.50261 3.66365C7.5457 3.76872 7.64443 3.84045 7.75767 3.84896L10.9769 4.09105C11.2445 4.11117 11.3531 4.44548 11.1485 4.619L8.68633 6.70709C8.59972 6.78054 8.56201 6.89661 8.58891 7.00694L9.35348 10.1435C9.41702 10.4041 9.13263 10.6107 8.90438 10.4697L6.15764 8.77336C6.06102 8.71369 5.93898 8.71369 5.84236 8.77336L3.09562 10.4697C2.86737 10.6107 2.58298 10.4041 2.64652 10.1435L3.41109 7.00694C3.43799 6.89661 3.40028 6.78054 3.31367 6.70709L0.851518 4.619C0.64691 4.44548 0.755536 4.11117 1.02306 4.09105L4.24233 3.84896C4.35557 3.84045 4.4543 3.76872 4.49739 3.66365L5.72244 0.67675Z" fill="white"/>
</svg>
