<svg width="25" height="24" viewBox="0 0 25 24" fill="none" xmlns="http://www.w3.org/2000/svg">
<g clip-path="url(#clip0_64_4078)">
<path d="M12.6224 0L10.4184 2.06061L6.9898 1.33333L5.64286 4.36364L2.70408 5.09091L3.07143 8.36364L0.5 10.6667L2.33673 13.2121L1.35714 16.1212L4.17347 17.9394L4.54082 21.0909H8.09184L10.2959 24L12.6224 22.0606L15.5612 23.7576L17.2755 21.0909H20.5816L21.0714 17.9394L23.8878 16.1212L22.7857 13.2121L24.5 10.6667L22.1735 8.36364L22.4184 5.09091L19.7245 4.36364L18.1327 1.33333L14.949 2.06061L12.6224 0Z" fill="#25D366"/>
<path d="M8.45935 11.7552L7.23486 13.2246L11.3981 17.0205L18.3777 8.57155L16.7859 7.22461L11.0308 14.0818L8.45935 11.7552Z" fill="white"/>
</g>
<defs>
<clipPath id="clip0_64_4078">
<rect width="24" height="24" fill="white" transform="translate(0.5)"/>
</clipPath>
</defs>
</svg>
