<svg width="25" height="24" viewBox="0 0 25 24" fill="none" xmlns="http://www.w3.org/2000/svg">
<path d="M19.4905 19H19.5M19.4905 19C18.8678 19.6175 17.7393 19.4637 16.9479 19.4637C15.9765 19.4637 15.5087 19.6537 14.8154 20.347C14.2251 20.9374 13.4337 22 12.5 22C11.5663 22 10.7749 20.9374 10.1846 20.347C9.49128 19.6537 9.02349 19.4637 8.05206 19.4637C7.26068 19.4637 6.13218 19.6175 5.50949 19C4.88181 18.3776 5.03628 17.2444 5.03628 16.4479C5.03628 15.4414 4.81616 14.9786 4.09938 14.2618C3.03314 13.1956 2.50002 12.6624 2.5 12C2.50001 11.3375 3.03312 10.8044 4.09935 9.73817C4.7392 9.09832 5.03628 8.46428 5.03628 7.55206C5.03628 6.76065 4.88249 5.63214 5.5 5.00944C6.12243 4.38178 7.2556 4.53626 8.05208 4.53626C8.96427 4.53626 9.59832 4.2392 10.2381 3.59937C11.3044 2.53312 11.8375 2 12.5 2C13.1625 2 13.6956 2.53312 14.7618 3.59937C15.4015 4.23907 16.0355 4.53626 16.9479 4.53626C17.7393 4.53626 18.8679 4.38247 19.4906 5C20.1182 5.62243 19.9637 6.75559 19.9637 7.55206C19.9637 8.55858 20.1839 9.02137 20.9006 9.73817C21.9669 10.8044 22.5 11.3375 22.5 12C22.5 12.6624 21.9669 13.1956 20.9006 14.2618C20.1838 14.9786 19.9637 15.4414 19.9637 16.4479C19.9637 17.2444 20.1182 18.3776 19.4905 19Z" stroke="#3F3F46" stroke-width="1.5"/>
<path d="M9.5 12.8929C9.5 12.8929 10.7 13.5447 11.3 14.5C11.3 14.5 13.1 10.75 15.5 9.5" stroke="#3F3F46" stroke-width="1.5"/>
</svg>
