<svg width="32" height="32" viewBox="0 0 32 32" fill="none" xmlns="http://www.w3.org/2000/svg">
<path d="M21.6667 16C21.6667 15.4477 21.219 15 20.6667 15C20.1144 15 19.6667 15.4477 19.6667 16H21.6667ZM9.35493 9.27745L9.52145 10.2635L9.35493 9.27745ZM11.4658 8.2936L10.9153 7.45874L10.9153 7.45874L11.4658 8.2936ZM10.3039 8.99275L10.7077 9.90762L10.3039 8.99275ZM4.45318 22.2969L4.03328 23.2045L4.45318 22.2969ZM2.04639 17.3712L1.04824 17.432L2.04639 17.3712ZM2.61139 20.564L3.49173 20.0896L2.61139 20.564ZM18.2667 26.7665L17.9438 25.8201L18.2667 26.7665ZM20.5503 19.4738L21.5492 19.5202L20.5503 19.4738ZM19.0396 26.3732L19.6146 27.1914L19.0396 26.3732ZM11.7577 8.10113L12.3081 8.93599V8.93599L11.7577 8.10113ZM18.2667 5.23341L17.9438 6.17981L18.2667 5.23341ZM19.0396 5.62669L19.6146 4.80853L19.0396 5.62669ZM4.45318 9.70301L4.03328 8.79544L4.45318 9.70301ZM2.04639 14.6288L1.04824 14.5679L2.04639 14.6288ZM2.61139 11.436L3.49173 11.9103L2.61139 11.436ZM13.2148 23.6605C12.7528 23.3578 12.133 23.4869 11.8303 23.9489C11.5275 24.4108 11.6566 25.0307 12.1186 25.3334L13.2148 23.6605ZM11.4658 8.2936L12.0162 9.12846L12.3081 8.93599L11.7577 8.10113L11.2072 7.26627L10.9153 7.45874L11.4658 8.2936ZM2.04639 17.3712L3.04453 17.3103C3.01634 16.8477 3 16.4043 3 16H2H1C1 16.4554 1.01831 16.941 1.04824 17.432L2.04639 17.3712ZM2 16H3C3 15.5957 3.01634 15.1522 3.04453 14.6896L2.04639 14.6288L1.04824 14.5679C1.01831 15.0589 1 15.5445 1 16H2ZM20.6667 16H19.6667C19.6667 16.6823 19.6207 17.9346 19.5514 19.4274L20.5503 19.4738L21.5492 19.5202C21.6183 18.0336 21.6667 16.736 21.6667 16H20.6667ZM8.00011 9.33329V10.3333C8.65028 10.3333 9.08909 10.3365 9.52145 10.2635L9.35493 9.27745L9.18842 8.29141C8.95942 8.33009 8.71547 8.3333 8.00011 8.3333V9.33329ZM11.4658 8.2936L10.9153 7.45874C10.3181 7.85251 10.1126 7.98412 9.90017 8.07789L10.3039 8.99275L10.7077 9.90762C11.1088 9.73058 11.4734 9.48635 12.0162 9.12846L11.4658 8.2936ZM9.35493 9.27745L9.52145 10.2635C9.93008 10.1945 10.3286 10.0749 10.7077 9.90762L10.3039 8.99275L9.90017 8.07789C9.67269 8.17829 9.4336 8.25001 9.18842 8.29141L9.35493 9.27745ZM8.00011 22.6666V23.6666C8.71547 23.6666 8.95942 23.6698 9.18842 23.7085L9.35493 22.7225L9.52145 21.7364C9.08909 21.6634 8.65028 21.6666 8.00011 21.6666V22.6666ZM8.00011 22.6666V21.6666C6.07521 21.6666 5.42549 21.6449 4.87307 21.3893L4.45318 22.2969L4.03328 23.2045C5.07907 23.6883 6.26124 23.6666 8.00011 23.6666V22.6666ZM2.04639 17.3712L1.04824 17.432C1.14198 18.97 1.18679 20.0282 1.73104 21.0383L2.61139 20.564L3.49173 20.0896C3.2007 19.5495 3.14727 18.9959 3.04453 17.3103L2.04639 17.3712ZM4.45318 22.2969L4.87307 21.3893C4.33926 21.1424 3.77072 20.6074 3.49173 20.0896L2.61139 20.564L1.73104 21.0383C2.21522 21.9369 3.10687 22.7759 4.03328 23.2045L4.45318 22.2969ZM20.5503 19.4738L19.5514 19.4274C19.4565 21.4684 19.388 22.8976 19.202 23.9308C19.0169 24.9593 18.7535 25.3521 18.4646 25.5551L19.0396 26.3732L19.6146 27.1914C20.556 26.5298 20.9545 25.4844 21.1704 24.2852C21.3854 23.0906 21.4571 21.5024 21.5492 19.5202L20.5503 19.4738ZM18.2667 26.7665L18.5897 27.7129C18.9522 27.5892 19.3012 27.4116 19.6146 27.1914L19.0396 26.3732L18.4646 25.5551C18.3062 25.6664 18.127 25.7576 17.9438 25.8201L18.2667 26.7665ZM11.7577 8.10113L12.3081 8.93599C14.0279 7.8021 15.2346 7.00891 16.187 6.54629C17.1367 6.08494 17.6116 6.06644 17.9438 6.17981L18.2667 5.23341L18.5897 4.287C17.4988 3.91472 16.4144 4.2123 15.3131 4.74732C14.2143 5.28108 12.8781 6.16458 11.2072 7.26627L11.7577 8.10113ZM18.2667 5.23341L17.9438 6.17981C18.127 6.24233 18.3062 6.33356 18.4646 6.44486L19.0396 5.62669L19.6146 4.80853C19.3012 4.58829 18.9522 4.4107 18.5897 4.287L18.2667 5.23341ZM8.00011 9.33329V8.3333C6.26124 8.3333 5.07907 8.31159 4.03328 8.79544L4.45318 9.70301L4.87307 10.6106C5.42549 10.355 6.07521 10.3333 8.00011 10.3333V9.33329ZM2.04639 14.6288L3.04453 14.6896C3.14727 13.004 3.2007 12.4504 3.49173 11.9103L2.61139 11.436L1.73104 10.9616C1.18679 11.9717 1.14198 13.0299 1.04824 14.5679L2.04639 14.6288ZM4.45318 9.70301L4.03328 8.79544C3.10687 9.22405 2.21522 10.063 1.73104 10.9616L2.61139 11.436L3.49173 11.9103C3.77072 11.3925 4.33926 10.8576 4.87307 10.6106L4.45318 9.70301ZM12.6667 24.497L12.1186 25.3334C13.5036 26.241 14.65 26.9663 15.6272 27.3986C16.617 27.8364 17.6004 28.0506 18.5897 27.7129L18.2667 26.7665L17.9438 25.8201C17.6433 25.9227 17.225 25.9184 16.4363 25.5695C15.6352 25.2152 14.6264 24.5856 13.2148 23.6605L12.6667 24.497ZM20.4986 11.436L21.4974 11.3866C21.4166 9.75042 21.3285 8.40937 21.1026 7.37295C20.8736 6.32171 20.4671 5.40767 19.6146 4.80853L19.0396 5.62669L18.4646 6.44486C18.7258 6.6284 18.9672 6.96701 19.1485 7.79875C19.3329 8.64529 19.4175 9.81754 19.4998 11.4853L20.4986 11.436Z" fill="#3F3F46"/>
<path d="M26.6667 23.9999C26.6667 23.9999 28.6667 21.5999 28.6667 15.9999C28.6667 12.7554 27.9953 10.585 27.4306 9.33325" stroke="#3F3F46" stroke-width="2" stroke-linecap="round"/>
<path d="M24 19.9999C24 19.9999 24.6667 18.7999 24.6667 15.9999C24.6667 14.8507 24.5544 13.9711 24.422 13.3333" stroke="#3F3F46" stroke-width="2" stroke-linecap="round"/>
<path d="M29.3334 2.66675L2.66669 29.3334" stroke="#3F3F46" stroke-width="2" stroke-linecap="round"/>
</svg>
