<svg width="32" height="32" viewBox="0 0 32 32" fill="none" xmlns="http://www.w3.org/2000/svg">
<path d="M16 29.3334C23.3638 29.3334 29.3334 23.3638 29.3334 16C29.3334 8.63622 23.3638 2.66669 16 2.66669C8.63622 2.66669 2.66669 8.63622 2.66669 16C2.66669 17.8386 3.03878 19.5902 3.71178 21.1836C4.08373 22.0642 4.2697 22.5046 4.29273 22.8374C4.31575 23.1702 4.21781 23.5362 4.02191 24.2683V24.2683C3.41934 26.5203 5.47965 28.5807 7.73171 27.9782V27.9782C8.46386 27.7823 8.82994 27.6843 9.16271 27.7074C9.4955 27.7303 9.93582 27.9163 10.8165 28.2883C12.41 28.9612 14.1615 29.3334 16 29.3334Z" stroke="#3F3F46" stroke-width="2.25"/>
<path d="M11.4508 16.503L12.6121 15.0608C13.1015 14.4529 13.7065 13.887 13.754 13.0777C13.7658 12.8732 13.6221 11.9554 13.3344 10.1198C13.2213 9.39839 12.5478 9.33331 11.9644 9.33331C11.2042 9.33331 10.824 9.33331 10.4466 9.50573C9.9695 9.72365 9.4797 10.3364 9.37221 10.8498C9.28717 11.2559 9.35037 11.5358 9.47677 12.0956C10.0136 14.473 11.2731 16.821 13.226 18.774C15.1789 20.7269 17.5269 21.9864 19.9044 22.5232C20.4641 22.6496 20.744 22.7128 21.1502 22.6277C21.6636 22.5202 22.2762 22.0305 22.4942 21.5533C22.6666 21.1758 22.6666 20.7958 22.6666 20.0356C22.6666 19.4521 22.6016 18.7786 21.8801 18.6656C20.0445 18.3778 19.1268 18.2341 18.9222 18.246C18.1129 18.2934 17.547 18.8984 16.9392 19.3878L15.4969 20.549" stroke="#3F3F46" stroke-width="2.25"/>
</svg>
